# AssetId: 3DApple003
# Name: 3D Apple 003
# Author: ambientCG
# Tags: 3,3d,apple,damaged,foot,old,red,rotten,spoiled,wrinkles
mtllib 3DApple003_LQ-1K-JPG.mtl
usemtl 3DApple003_LQ-1K-JPG
o 3DApple003_LQ-1K-JPG
v -0.025985 0.088930 0.026211
v -0.023266 0.089061 0.030035
v -0.021843 0.094783 0.019498
v -0.031280 0.088450 0.021187
v -0.025678 0.093596 0.011194
v -0.034366 0.088828 0.005828
v -0.013154 0.095765 -0.001086
v -0.021492 0.095629 -0.004004
v -0.027655 0.092833 -0.000756
v -0.025281 0.093330 -0.010813
v -0.008404 0.091064 0.005994
v -0.013888 0.094125 0.007282
v -0.007334 0.093869 0.011820
v -0.014489 0.096391 0.014496
v -0.009093 0.093856 0.000318
v -0.016394 0.093382 0.024192
v -0.021657 0.094906 0.009441
v -0.001179 0.095836 0.023955
v -0.041681 0.075599 -0.005039
v -0.039551 0.081825 0.001992
v -0.032465 0.084828 -0.016503
v -0.044492 0.071952 0.001312
v -0.039451 0.080593 0.012738
v -0.038804 0.074395 -0.015085
v -0.034985 0.066307 -0.026855
v -0.040582 0.072145 0.023584
v -0.035545 0.082646 0.022018
v -0.030785 0.080822 0.030314
v -0.011992 0.090377 0.034944
v -0.007771 0.090878 -0.027417
v -0.004350 0.082134 -0.033974
v -0.021078 0.083842 -0.028391
v -0.028309 0.075468 -0.027589
v -0.007377 0.096330 -0.017568
v -0.016708 0.094737 -0.018064
v -0.015733 0.096658 -0.010591
v -0.025260 0.090003 -0.017527
v -0.006801 0.097468 -0.006241
v -0.024066 0.070733 -0.033889
v -0.008260 0.076373 -0.036428
v -0.034612 0.072248 0.031483
v -0.026447 0.077839 0.036713
v -0.029152 0.066667 0.039141
v -0.012167 0.082927 0.042655
v -0.013090 0.077473 0.045448
v -0.021607 0.067179 0.044418
v -0.012521 0.055922 0.049796
v -0.011595 0.064316 0.050025
v -0.014338 0.073155 -0.036998
v -0.003556 0.066822 -0.041541
v -0.006673 0.057766 -0.043463
v -0.014674 0.061370 -0.040622
v -0.001830 0.072939 -0.036869
v -0.000162 0.053870 -0.043899
v 0.002677 0.059367 -0.041983
v -0.000452 0.070969 -0.038955
v 0.000474 0.075634 -0.032888
v 0.001844 0.042950 -0.045469
v -0.042473 0.065858 -0.013282
v -0.047313 0.059469 0.003565
v -0.046148 0.053114 -0.008419
v -0.041518 0.058668 -0.019608
v -0.042242 0.048558 -0.019500
v -0.045832 0.035283 -0.005361
v -0.047558 0.044766 -0.000135
v -0.045916 0.065140 0.012174
v -0.047125 0.051651 0.012686
v -0.046381 0.037116 0.006784
v -0.045689 0.039168 0.013308
v -0.041973 0.025789 0.013683
v -0.043464 0.061229 0.022754
v -0.029962 0.042829 0.039194
v -0.029136 0.052997 0.041413
v -0.038182 0.048804 0.030957
v -0.035670 0.062329 0.033721
v -0.042758 0.046162 0.024075
v -0.038850 0.026787 0.022208
v -0.019484 0.036823 0.043626
v -0.021126 0.028647 0.039215
v -0.008729 0.046863 0.050588
v -0.022795 0.050309 0.045442
v -0.010685 0.035925 0.046680
v -0.034310 0.013004 0.016588
v -0.025683 0.031596 0.038577
v -0.028163 0.021721 0.031606
v -0.032478 0.035247 0.034369
v -0.030758 0.021475 0.028677
v -0.037309 0.029641 0.023807
v -0.036807 0.038276 0.030416
v -0.033593 0.021148 0.024625
v -0.030950 0.013303 0.019560
v -0.007312 0.028778 0.045228
v -0.011846 0.021902 0.041128
v -0.013275 0.015546 0.037832
v -0.020264 0.023382 0.037611
v -0.003415 0.023301 0.044630
v -0.005264 0.019331 0.042584
v -0.005498 0.031167 0.045383
v -0.007783 0.035671 0.045093
v -0.001391 0.043548 0.051201
v -0.024789 0.016543 0.031760
v -0.022559 0.011396 0.029136
v -0.012035 0.003326 0.025383
v -0.016816 0.008301 0.029877
v -0.005310 0.006191 0.032442
v -0.003606 0.008171 0.034946
v -0.040611 0.022372 -0.014703
v -0.043042 0.036463 -0.016172
v -0.043677 0.024636 -0.004262
v -0.035388 0.019319 -0.022029
v -0.029324 0.014519 -0.026135
v -0.033296 0.010890 -0.017438
v -0.033540 0.045443 -0.030602
v -0.024399 0.059365 -0.036818
v -0.030971 0.056254 -0.031917
v -0.022767 0.042228 -0.038564
v -0.034887 0.026909 -0.026471
v -0.013786 0.051473 -0.042431
v -0.021358 0.015763 -0.033520
v -0.014806 0.035747 -0.041620
v -0.014505 0.024233 -0.039409
v -0.003323 0.033527 -0.044560
v -0.007578 0.043325 -0.044609
v -0.023754 0.030006 -0.036846
v -0.025039 0.010409 -0.026602
v 0.006845 0.047566 -0.045573
v -0.004420 0.002685 -0.026602
v -0.012218 0.007981 -0.031734
v -0.021714 0.009047 -0.028839
v -0.017873 0.004375 -0.024692
v -0.010745 0.016429 -0.037578
v 0.007649 0.003785 -0.028406
v 0.001416 0.006802 -0.032629
v 0.008419 0.012816 -0.037520
v -0.002680 0.023110 -0.042402
v 0.000240 0.014112 -0.038880
v -0.037245 0.010988 -0.000814
v -0.038502 0.013316 -0.006869
v -0.030048 0.003385 -0.005533
v -0.030561 0.006507 -0.014810
v -0.037509 0.014744 0.010934
v -0.041529 0.019108 0.003024
v -0.034992 0.009782 0.006057
v -0.033826 0.011599 0.012554
v -0.013900 0.001043 0.013890
v -0.006154 0.005290 0.008749
v -0.010697 0.005120 -0.003747
v -0.012783 0.005230 0.000002
v -0.015407 0.002381 -0.003221
v -0.006921 0.014235 -0.003403
v -0.014807 0.003337 0.004514
v -0.023799 0.001548 0.003409
v -0.016762 0.002352 0.012024
v -0.023894 0.002694 0.010166
v -0.029684 0.003387 -0.000032
v -0.022645 0.001463 0.000170
v -0.023175 0.001054 -0.008818
v -0.008899 0.000513 0.017844
v -0.016350 0.003332 0.021858
v -0.023130 0.004745 0.017259
v -0.023661 0.007730 0.023346
v -0.027751 0.006507 0.015326
v -0.006696 0.002049 -0.019083
v -0.009611 0.001774 -0.016485
v -0.018428 0.001104 -0.012445
v -0.013320 0.001363 -0.020458
v -0.024596 0.003644 -0.017328
v -0.006459 0.009371 -0.010524
v 0.000076 0.016817 -0.006854
v -0.001262 0.003348 0.013331
v 0.003838 0.003311 0.011832
v -0.000479 0.001480 0.016189
v 0.000654 0.010786 0.010412
v -0.003937 0.000764 0.016982
v 0.002301 0.015366 -0.006647
v 0.001031 0.005278 -0.011799
v 0.001482 0.001245 -0.019447
v -0.002168 0.007124 -0.011997
v 0.004527 0.002392 -0.013954
v 0.006411 0.001358 -0.021811
v -0.000224 0.003295 0.029985
v -0.001142 0.000602 0.021647
v -0.004405 0.001211 0.022845
v -0.010809 0.005565 0.029963
v 0.004063 0.001506 0.015549
v 0.004288 0.002673 0.026795
v -0.000743 0.012562 0.039331
v 0.002253 0.005926 0.034046
v 0.006572 0.013319 -0.006147
v 0.003666 0.016246 -0.000204
v 0.007852 0.000998 -0.017471
v 0.010592 0.000979 -0.013068
v 0.006712 0.001445 0.013548
v 0.006563 0.007375 0.009990
v 0.000391 0.018950 0.043562
v 0.006150 0.010713 0.007997
v 0.002462 0.016601 0.005878
v 0.006638 0.002536 0.018873
v 0.005586 0.001087 0.021020
v 0.004384 0.090524 0.014579
v -0.009266 0.094801 0.016709
v 0.005649 0.094248 0.020791
v 0.005512 0.092652 0.034127
v 0.011980 0.094079 0.029596
v 0.013856 0.089585 0.037850
v 0.015185 0.095581 0.022995
v 0.017236 0.090574 0.031925
v 0.021263 0.089254 0.032588
v 0.011573 0.095037 0.024157
v 0.001264 0.094905 0.029533
v -0.001489 0.092796 0.034920
v 0.007686 0.091291 -0.025747
v 0.003143 0.096176 -0.018370
v 0.008036 0.084795 -0.030821
v 0.002632 0.084832 -0.030934
v 0.003666 0.091548 -0.023989
v -0.000936 0.096441 -0.017585
v 0.012528 0.096509 -0.015537
v 0.007350 0.095299 -0.006483
v 0.010495 0.096412 -0.006265
v 0.018975 0.084383 -0.028900
v 0.018654 0.091846 -0.021002
v 0.020824 0.094714 -0.013401
v 0.013328 0.085650 -0.029361
v 0.014777 0.097036 -0.008054
v 0.026007 0.088535 -0.020065
v 0.034075 0.084404 -0.015469
v -0.002431 0.092743 -0.001785
v 0.020783 0.095832 -0.009096
v 0.001096 0.080194 0.008367
v 0.000281 0.075428 0.004752
v -0.003469 0.083863 0.003109
v 0.021443 0.096318 0.002829
v 0.024670 0.094518 -0.003410
v 0.002592 0.076959 0.006208
v 0.000989 0.078063 0.002454
v 0.005741 0.082733 0.004133
v 0.004660 0.085318 0.004122
v 0.007671 0.090469 0.011646
v 0.009245 0.099804 0.005718
v 0.005480 0.095772 0.005667
v 0.008854 0.092918 -0.000641
v 0.004774 0.089837 -0.001742
v 0.006014 0.097104 0.004066
v 0.013495 0.108133 0.006680
v 0.011228 0.110139 0.007834
v 0.023562 0.095873 0.010259
v 0.014708 0.095956 0.013019
v 0.016761 0.096141 0.004270
v 0.021418 0.094215 0.019091
v 0.009861 0.094139 0.014570
v 0.010681 0.092765 0.004388
v 0.021688 0.091624 0.026498
v 0.031211 0.090293 -0.009107
v 0.030307 0.089428 0.018557
v 0.033495 0.085670 0.023269
v 0.033041 0.089926 0.014905
v 0.031411 0.090989 0.006096
v 0.038140 0.075331 -0.018591
v 0.038444 0.083535 -0.003629
v 0.041899 0.080272 0.005525
v 0.036385 0.087989 0.003083
v 0.031962 0.091009 -0.000680
v 0.039866 0.081005 0.016470
v 0.042163 0.076351 0.010786
v 0.036825 0.085517 0.008623
v 0.027400 0.092433 0.017689
v 0.028450 0.090192 0.024404
v 0.029420 0.083841 0.031318
v 0.028364 0.077836 -0.027677
v 0.022677 0.086440 -0.023701
v 0.006581 0.077805 -0.031394
v 0.042688 0.069566 0.020019
v 0.044448 0.072514 0.015290
v 0.038638 0.075840 0.020930
v 0.043019 0.069448 -0.011613
v 0.046615 0.066769 0.003330
v 0.047635 0.052154 -0.002713
v 0.043933 0.072140 -0.003031
v 0.047136 0.063507 0.007760
v 0.011954 0.083720 0.043752
v 0.007331 0.078064 0.047061
v 0.025526 0.082406 0.036260
v 0.022878 0.082041 0.037739
v 0.022343 0.078312 0.041510
v -0.000458 0.087321 0.041586
v 0.028724 0.068878 0.041186
v 0.030126 0.076310 0.035477
v 0.020401 0.073052 0.045062
v 0.015687 0.074145 0.046879
v -0.000853 0.076350 0.048271
v 0.013425 0.065427 0.048746
v 0.011974 0.059797 0.048165
v 0.007122 0.064792 0.051201
v 0.007005 0.051457 0.051654
v -0.000834 0.053036 0.052629
v -0.002034 0.063818 0.051717
v 0.032346 0.078899 0.032724
v 0.038215 0.077936 0.022843
v 0.045339 0.059054 0.021232
v 0.044923 0.059026 0.018761
v 0.038591 0.056952 0.034514
v 0.044095 0.053789 0.025917
v 0.040674 0.061211 0.028057
v 0.033430 0.053113 0.039336
v 0.034554 0.043027 0.037190
v 0.040973 0.068071 0.026949
v 0.018748 0.060250 0.048059
v 0.026169 0.061984 0.043338
v 0.030559 0.059093 0.041648
v 0.038293 0.070783 0.030404
v 0.034677 0.066097 0.036809
v 0.023417 0.057825 0.046560
v 0.046117 0.042773 0.017524
v 0.047625 0.043742 0.012973
v 0.048075 0.056213 0.015437
v 0.043673 0.043979 0.024614
v 0.042447 0.032046 0.022463
v 0.045772 0.046783 0.020278
v 0.044335 0.038582 0.016948
v 0.041305 0.047145 0.028029
v 0.039301 0.044810 0.033248
v 0.048411 0.050357 0.005191
v 0.046283 0.063823 0.016464
v 0.014035 0.051771 0.049969
v 0.038446 0.029416 0.027379
v 0.036617 0.033636 0.032226
v 0.033341 0.030353 0.032744
v 0.020881 0.044593 0.046841
v 0.018631 0.035242 0.045399
v 0.017517 0.037596 0.045608
v 0.029426 0.046160 0.041758
v 0.029857 0.034296 0.038701
v 0.025124 0.035317 0.042873
v 0.015448 0.053338 0.048593
v 0.037846 0.027986 0.024793
v 0.021296 0.071039 -0.035203
v 0.021336 0.073345 -0.032715
v 0.029699 0.068357 -0.031315
v 0.018086 0.077507 -0.033875
v 0.008627 0.076200 -0.033769
v 0.012923 0.071502 -0.037642
v 0.011353 0.047537 -0.043917
v 0.017006 0.066280 -0.037863
v 0.010964 0.066046 -0.039218
v 0.009235 0.049459 -0.043588
v 0.008254 0.063451 -0.041733
v 0.004171 0.061328 -0.042664
v 0.008574 0.070325 -0.038116
v 0.005143 0.073123 -0.032443
v 0.003851 0.069130 -0.037843
v 0.039590 0.060282 -0.023925
v 0.041036 0.066091 -0.018901
v 0.045223 0.040668 -0.014172
v 0.043826 0.028716 -0.011122
v 0.041275 0.046520 -0.023395
v 0.043839 0.047845 -0.018541
v 0.044298 0.054539 -0.016857
v 0.040423 0.037749 -0.022733
v 0.038541 0.054630 -0.025750
v 0.036390 0.046966 -0.029709
v 0.034761 0.054997 -0.030134
v 0.033085 0.044309 -0.031560
v 0.035002 0.056018 -0.027501
v 0.036000 0.058717 -0.027830
v 0.031320 0.055602 -0.033949
v 0.035339 0.069442 -0.024594
v 0.026743 0.054328 -0.036013
v 0.021821 0.041022 -0.039605
v 0.041747 0.032095 -0.017557
v 0.037523 0.030490 -0.024788
v 0.036372 0.036672 -0.028506
v 0.030005 0.036062 -0.034730
v 0.023288 0.030432 -0.038048
v 0.019513 0.032811 -0.039422
v 0.045670 0.058711 -0.011949
v 0.047082 0.061059 -0.003224
v 0.046456 0.050999 -0.010258
v 0.047190 0.047752 0.009342
v 0.046677 0.039043 -0.005439
v 0.048357 0.043725 0.003333
v 0.012173 0.039904 -0.043802
v 0.046216 0.034765 0.014091
v 0.046517 0.039271 0.010438
v 0.042694 0.025810 0.007865
v 0.045666 0.031414 0.005119
v 0.043533 0.025073 -0.004268
v 0.011236 0.024529 0.043639
v 0.018741 0.021411 0.040473
v 0.010427 0.020316 0.043307
v 0.001382 0.021872 0.044486
v 0.020663 0.028285 0.042381
v 0.013967 0.040230 0.048826
v 0.008794 0.031407 0.047534
v 0.000308 0.035892 0.048980
v 0.004696 0.042686 0.050205
v 0.018187 0.014382 0.036375
v 0.007780 0.012066 0.038517
v 0.025226 0.027556 0.039986
v 0.020354 0.021524 0.038191
v 0.022659 0.016114 0.035085
v 0.027797 0.030620 0.037360
v 0.035603 0.025323 0.029781
v 0.028308 0.022744 0.034855
v 0.036428 0.019262 -0.020021
v 0.033532 0.032029 -0.028609
v 0.033784 0.023282 -0.026868
v 0.029952 0.027324 -0.032994
v 0.038248 0.017993 -0.015035
v 0.025132 0.026590 -0.035749
v 0.015404 0.025831 -0.040828
v 0.006290 0.035934 -0.045108
v 0.010897 0.010630 -0.034873
v 0.013603 0.017144 -0.038000
v 0.019801 0.018832 -0.036291
v 0.018302 0.009802 -0.031124
v 0.012647 0.002613 -0.025681
v 0.025734 0.017175 -0.031797
v 0.008461 0.026570 -0.043337
v 0.023792 0.008669 -0.027299
v 0.029190 0.016761 -0.027747
v 0.029925 0.010774 -0.022128
v 0.013742 0.004630 0.001179
v 0.012972 0.003229 0.005028
v 0.008044 0.014789 -0.000609
v 0.011657 0.007132 0.005098
v 0.008172 0.002554 0.010346
v 0.006019 0.016170 0.004143
v 0.026380 0.005819 -0.005584
v 0.022674 0.003929 -0.011256
v 0.017556 0.001815 -0.008050
v 0.021229 0.002990 -0.015639
v 0.019237 0.004073 -0.017427
v 0.015887 0.001264 -0.014398
v 0.012881 0.001702 -0.007551
v 0.009602 0.003852 -0.011520
v 0.030733 0.008235 -0.006917
v 0.010444 0.004234 -0.004018
v 0.016342 0.001439 0.000876
v 0.020696 0.002733 -0.000785
v 0.019347 0.003631 0.002417
v 0.016026 0.002834 -0.004087
v 0.019926 0.002990 0.010377
v 0.035769 0.012171 -0.012123
v 0.032354 0.009305 -0.015312
v 0.036737 0.011909 -0.005113
v 0.022730 0.004929 -0.020190
v 0.020622 0.003973 -0.022427
v 0.033482 0.010004 -0.001957
v 0.015215 0.002747 -0.023137
v 0.040228 0.017730 -0.007937
v 0.033735 0.012910 -0.018219
v 0.039686 0.015790 -0.002968
v 0.043192 0.023289 0.009987
v 0.039653 0.018066 0.006915
v 0.042995 0.022178 0.005441
v 0.044000 0.025584 0.001336
v 0.038621 0.013828 0.002574
v 0.017343 0.001711 0.010224
v 0.022580 0.004142 0.020047
v 0.017253 0.002184 0.017605
v 0.021163 0.002790 0.004243
v 0.018927 0.003747 0.025313
v 0.013506 0.001264 0.018696
v 0.009288 0.001522 0.024990
v 0.014266 0.005150 0.027790
v 0.007786 0.007241 0.034112
v 0.017509 0.008671 0.031826
v 0.033457 0.009671 0.004571
v 0.031434 0.008975 0.009849
v 0.024778 0.005455 0.009457
v 0.022811 0.006239 0.008248
v 0.028485 0.008194 0.016293
v 0.025360 0.006501 0.016830
v 0.024314 0.006856 0.023783
v 0.039197 0.014525 0.009009
v 0.040872 0.022586 0.013629
v 0.032404 0.018432 0.026240
v 0.029790 0.014818 0.028568
v 0.032267 0.011051 0.019726
v 0.022978 0.009527 0.029723
v 0.039775 0.018423 0.013853
v 0.034754 0.013029 0.010982
v 0.034650 0.011224 0.013474
v 0.036392 0.015837 0.018109
v 0.036681 0.021542 0.024841
v 0.040991 0.024461 0.020293
v -0.003222 0.091856 0.014859
v 0.003816 0.013880 0.040261
v 0.002636 0.013315 0.002838
v -0.014458 0.003230 0.008829
v -0.008325 0.009689 0.006487
v -0.006280 0.016207 0.000718
v -0.005187 0.015130 0.004365
v 0.000505 0.013679 -0.001926
v -0.002690 0.015372 -0.006749
v -0.000204 0.016333 0.001304
v -0.000964 0.017359 0.003178
v -0.003226 0.013005 0.007598
v -0.001728 0.013712 -0.000012
v -0.004407 0.016515 -0.001630
vn -0.5141 0.7383 0.4366
vn -0.4600 0.7491 0.4767
vn -0.2917 0.9180 0.2688
vn -0.6290 0.6949 0.3485
vn -0.4309 0.9007 0.0551
vn -0.6829 0.7304 0.0118
vn 0.0891 0.9656 0.2445
vn -0.2678 0.9635 -0.0004
vn -0.4882 0.8721 -0.0327
vn -0.4776 0.8413 -0.2534
vn 0.7265 0.6819 -0.0844
vn 0.2465 0.9679 -0.0493
vn 0.4936 0.8171 -0.2977
vn 0.0730 0.9973 0.0021
vn 0.4251 0.7751 0.4675
vn -0.1659 0.9323 0.3214
vn -0.1845 0.9827 -0.0130
vn 0.0306 0.9995 0.0086
vn -0.8802 0.4148 -0.2306
vn -0.8353 0.5449 -0.0731
vn -0.7001 0.5813 -0.4147
vn -0.9423 0.3270 -0.0713
vn -0.8548 0.4947 0.1566
vn -0.8376 0.3745 -0.3978
vn -0.7228 0.2503 -0.6441
vn -0.8507 0.3247 0.4133
vn -0.7587 0.5322 0.3757
vn -0.6554 0.4979 0.5679
vn -0.2589 0.8072 0.5305
vn -0.0871 0.7288 -0.6792
vn 0.0845 0.4053 -0.9103
vn -0.4227 0.5644 -0.7091
vn -0.6163 0.4287 -0.6606
vn -0.0627 0.9502 -0.3053
vn -0.3300 0.8631 -0.3824
vn -0.2046 0.9715 -0.1201
vn -0.4913 0.7400 -0.4593
vn 0.0710 0.9670 0.2448
vn -0.4886 0.3213 -0.8112
vn 0.0121 0.4589 -0.8884
vn -0.7108 0.2976 0.6374
vn -0.5731 0.4167 0.7056
vn -0.6461 0.2304 0.7277
vn -0.3003 0.5697 0.7651
vn -0.3352 0.3896 0.8578
vn -0.5046 0.2124 0.8368
vn -0.3128 -0.0050 0.9498
vn -0.2945 0.1455 0.9445
vn -0.2684 0.3934 -0.8793
vn -0.0099 0.3591 -0.9333
vn -0.1165 0.1717 -0.9782
vn -0.3259 0.2122 -0.9213
vn 0.2532 0.6763 -0.6918
vn 0.1248 0.1606 -0.9791
vn -0.2244 0.1399 -0.9644
vn 0.1461 0.6466 -0.7487
vn 0.3266 0.3398 -0.8819
vn 0.0073 -0.0274 -0.9996
vn -0.9117 0.2429 -0.3313
vn -0.9913 0.1237 -0.0456
vn -0.9681 0.0656 -0.2418
vn -0.8668 0.1368 -0.4795
vn -0.8735 -0.0031 -0.4869
vn -0.9762 -0.1521 -0.1545
vn -0.9959 -0.0584 -0.0690
vn -0.9604 0.2275 0.1608
vn -0.9810 -0.0077 0.1939
vn -0.9777 -0.1899 0.0898
vn -0.9476 -0.1798 0.2639
vn -0.9032 -0.3302 0.2744
vn -0.8969 0.1036 0.4298
vn -0.6344 -0.1802 0.7517
vn -0.6370 0.0030 0.7709
vn -0.7976 -0.0619 0.5999
vn -0.7569 0.1287 0.6407
vn -0.8722 -0.1119 0.4762
vn -0.6625 -0.3501 0.6622
vn -0.3989 -0.2956 0.8681
vn -0.1254 -0.6425 0.7559
vn -0.2677 -0.1606 0.9500
vn -0.4688 -0.0803 0.8796
vn -0.0616 -0.5999 0.7977
vn -0.7186 -0.5750 0.3911
vn -0.4992 -0.3473 0.7938
vn -0.6073 -0.3924 0.6908
vn -0.6964 -0.2718 0.6642
vn -0.6987 -0.4315 0.5706
vn -0.5869 -0.3536 0.7284
vn -0.8520 -0.1887 0.4883
vn -0.8225 -0.4302 0.3721
vn -0.6120 -0.5628 0.5557
vn -0.2582 -0.1178 0.9589
vn -0.3546 -0.3603 0.8628
vn -0.2477 -0.4989 0.8305
vn -0.5457 -0.1353 0.8270
vn -0.1388 -0.2744 0.9515
vn -0.0870 -0.5126 0.8542
vn -0.2050 -0.1328 0.9697
vn -0.1080 -0.5195 0.8476
vn -0.0098 -0.3287 0.9444
vn -0.5798 -0.5088 0.6363
vn -0.5406 -0.5853 0.6043
vn -0.1467 -0.8863 0.4393
vn -0.3012 -0.7138 0.6323
vn -0.0530 -0.7849 0.6174
vn 0.0382 -0.6242 0.7803
vn -0.8867 -0.3081 -0.3449
vn -0.9085 -0.1201 -0.4003
vn -0.9512 -0.2963 -0.0860
vn -0.7748 -0.3551 -0.5230
vn -0.6409 -0.4453 -0.6253
vn -0.7199 -0.5656 -0.4022
vn -0.7028 -0.0184 -0.7111
vn -0.5097 0.1469 -0.8477
vn -0.6456 0.0993 -0.7572
vn -0.4921 -0.0283 -0.8701
vn -0.7420 -0.2045 -0.6385
vn -0.3602 0.0796 -0.9295
vn -0.4511 -0.4208 -0.7870
vn -0.3723 -0.1276 -0.9193
vn -0.3289 -0.2580 -0.9084
vn -0.1394 -0.1467 -0.9793
vn -0.2088 0.0002 -0.9780
vn -0.5063 -0.1677 -0.8459
vn -0.5692 -0.6049 -0.5570
vn 0.2747 0.0637 -0.9594
vn -0.1896 -0.9119 -0.3641
vn -0.2349 -0.7013 -0.6730
vn -0.2948 -0.6572 -0.6937
vn -0.2882 -0.8103 -0.5102
vn -0.2532 -0.4375 -0.8628
vn 0.0794 -0.8353 -0.5440
vn -0.0093 -0.7318 -0.6815
vn 0.2691 -0.5023 -0.8217
vn -0.1240 -0.3004 -0.9457
vn -0.0514 -0.5100 -0.8586
vn -0.8089 -0.5865 0.0413
vn -0.8481 -0.5116 -0.1379
vn -0.5434 -0.8356 -0.0808
vn -0.5945 -0.7340 -0.3283
vn -0.7686 -0.5062 0.3911
vn -0.9081 -0.4101 0.0845
vn -0.7043 -0.6760 0.2165
vn -0.7069 -0.6635 0.2453
vn -0.1089 -0.9832 -0.1469
vn 0.2787 -0.5969 -0.7523
vn 0.7135 -0.6297 0.3073
vn 0.6576 -0.7273 0.1964
vn 0.3131 -0.9128 0.2622
vn 0.7549 -0.5965 0.2727
vn 0.3850 -0.9193 -0.0822
vn -0.1643 -0.9782 0.1274
vn -0.1909 -0.9764 -0.1007
vn -0.2812 -0.9287 0.2419
vn -0.5053 -0.8496 0.1515
vn 0.0019 -0.9991 0.0417
vn -0.1850 -0.9741 -0.1303
vn 0.0049 -0.9994 0.0329
vn -0.3831 -0.8822 0.2737
vn -0.3898 -0.8823 0.2639
vn -0.5512 -0.7254 0.4123
vn -0.5449 -0.7643 0.3448
vn 0.0368 -0.9976 0.0594
vn 0.2773 -0.9391 0.2029
vn -0.0761 -0.9957 -0.0523
vn -0.0091 -0.9599 -0.2802
vn -0.4386 -0.8619 -0.2543
vn 0.5008 -0.5945 0.6291
vn -0.0687 -0.9741 0.2155
vn 0.0560 -0.7221 -0.6895
vn -0.0912 -0.6458 -0.7580
vn -0.0118 -0.9453 -0.3260
vn 0.0371 -0.4661 -0.8839
vn 0.0614 -0.9842 -0.1658
vn -0.3247 -0.8259 0.4609
vn -0.2415 -0.6239 0.7433
vn -0.0661 -0.9899 0.1255
vn -0.1680 -0.5621 0.8098
vn -0.1722 -0.8717 0.4587
vn 0.0126 -0.9884 -0.1511
vn -0.2260 -0.8664 0.4452
vn -0.0294 -0.9962 0.0815
vn -0.2499 -0.9472 0.2008
vn -0.4073 -0.7427 0.5315
vn 0.3244 -0.8993 -0.2933
vn 0.0495 -0.9255 0.3755
vn -0.4898 -0.5629 0.6658
vn 0.2489 -0.7254 0.6418
vn -0.6272 -0.5989 0.4979
vn 0.2693 -0.9598 -0.0787
vn -0.1013 -0.9925 0.0689
vn -0.1631 -0.8281 0.5363
vn -0.2955 -0.9322 -0.2091
vn -0.4658 -0.3975 -0.7906
vn -0.0960 -0.4428 0.8915
vn -0.4978 -0.4915 -0.7146
vn -0.1837 -0.9418 -0.2817
vn 0.1867 -0.9766 -0.1069
vn -0.0488 -0.9968 -0.0633
vn -0.2326 0.7065 -0.6684
vn 0.1584 0.9871 -0.0250
vn -0.0694 0.9743 -0.2145
vn 0.0704 0.8677 0.4920
vn 0.2830 0.9234 0.2594
vn 0.3159 0.7535 0.5766
vn 0.1045 0.9661 0.2359
vn 0.3359 0.8227 0.4585
vn 0.3181 0.7396 0.5931
vn 0.0037 0.9905 0.1377
vn -0.0029 0.9725 0.2328
vn -0.0736 0.8670 0.4928
vn 0.0322 0.7316 -0.6810
vn 0.0002 0.9013 -0.4333
vn 0.0317 0.4391 -0.8979
vn 0.1425 0.4885 -0.8608
vn -0.0589 0.7451 -0.6644
vn 0.0081 0.9460 -0.3241
vn 0.3580 0.9241 -0.1338
vn -0.1186 0.9192 0.3754
vn -0.2632 0.9598 0.0974
vn 0.4058 0.5360 -0.7403
vn 0.3357 0.7899 -0.5132
vn 0.2965 0.8886 -0.3499
vn 0.1883 0.5621 -0.8054
vn -0.0678 0.9787 -0.1937
vn 0.4371 0.7254 -0.5318
vn 0.7010 0.5883 -0.4030
vn 0.2501 0.5840 0.7722
vn 0.2954 0.9483 -0.1159
vn 0.2071 0.5348 -0.8192
vn 0.1467 0.9818 0.1204
vn 0.7115 0.4292 0.5564
vn 0.2328 0.9334 0.2729
vn 0.4009 0.9129 -0.0765
vn -0.5374 0.7868 -0.3037
vn -0.2918 0.6703 0.6823
vn -0.7725 0.5656 0.2887
vn 0.9848 -0.1738 -0.0006
vn -0.7162 0.5719 -0.3999
vn 0.8796 -0.4484 0.1590
vn -0.6775 0.1132 0.7268
vn -0.6158 0.6752 0.4061
vn -0.2130 0.5152 0.8302
vn -0.4467 0.2686 -0.8534
vn 0.9128 0.3983 -0.0901
vn -0.0301 0.9526 0.3028
vn 0.2991 0.9540 -0.0232
vn -0.1530 0.9881 -0.0183
vn -0.1546 0.9848 0.0787
vn 0.2726 0.9378 0.2149
vn -0.4982 0.8164 -0.2920
vn -0.6953 0.7169 0.0508
vn 0.3694 0.8502 0.3750
vn 0.5951 0.7624 -0.2543
vn 0.6598 0.7148 0.2320
vn 0.7872 0.5864 0.1911
vn 0.6145 0.7453 0.2588
vn 0.5455 0.8373 0.0364
vn 0.7915 0.3939 -0.4674
vn 0.8177 0.5402 -0.1989
vn 0.8751 0.4750 0.0922
vn 0.7028 0.7111 0.0212
vn 0.5682 0.8196 -0.0730
vn 0.7829 0.5147 0.3495
vn 0.9023 0.4269 0.0596
vn 0.7650 0.6319 0.1245
vn 0.5592 0.8209 0.1159
vn 0.5074 0.7744 0.3779
vn 0.6161 0.5847 0.5278
vn 0.5528 0.4663 -0.6907
vn 0.4346 0.6348 -0.6388
vn -0.2586 0.2120 -0.9424
vn 0.8529 0.3236 0.4097
vn 0.9104 0.3608 0.2025
vn 0.8644 0.4094 0.2920
vn 0.9091 0.3063 -0.2824
vn 0.9682 0.2494 -0.0182
vn 0.9866 -0.1255 -0.1040
vn 0.9203 0.3499 -0.1750
vn 0.9842 0.1733 0.0356
vn 0.2246 0.5462 0.8070
vn 0.1065 0.3767 0.9202
vn 0.4931 0.5064 0.7074
vn 0.4583 0.5503 0.6980
vn 0.5485 0.4586 0.6991
vn -0.0551 0.6678 0.7423
vn 0.6801 0.2195 0.6995
vn 0.5930 0.3745 0.7128
vn 0.4497 0.2771 0.8491
vn 0.2851 0.2824 0.9159
vn -0.0557 0.3881 0.9200
vn 0.2450 0.0661 0.9673
vn 0.2764 0.0138 0.9609
vn 0.2364 0.1334 0.9624
vn 0.1887 -0.0363 0.9814
vn -0.0438 -0.0335 0.9985
vn -0.0788 0.1597 0.9840
vn 0.6282 0.4592 0.6281
vn 0.8952 0.4422 0.0555
vn 0.9828 0.1462 0.1132
vn 0.9521 0.1086 0.2860
vn 0.7897 0.0707 0.6094
vn 0.8892 -0.0046 0.4575
vn 0.8084 0.1432 0.5709
vn 0.6490 -0.0264 0.7603
vn 0.6569 -0.1817 0.7318
vn 0.8700 0.2416 0.4299
vn 0.2352 0.0538 0.9705
vn 0.5271 0.1176 0.8417
vn 0.5398 0.0641 0.8394
vn 0.8071 0.3071 0.5042
vn 0.6390 0.2424 0.7300
vn 0.5034 0.0524 0.8625
vn 0.8597 -0.2884 0.4216
vn 0.9903 -0.1277 0.0542
vn 0.9493 0.0851 0.3028
vn 0.8917 -0.0656 0.4478
vn 0.8082 -0.2424 0.5367
vn 0.9714 -0.0442 0.2333
vn 0.9231 -0.1297 0.3620
vn 0.8850 0.0176 0.4653
vn 0.7995 -0.1104 0.5904
vn 0.9447 -0.3137 -0.0954
vn 0.9174 0.1564 0.3660
vn 0.4563 0.0739 0.8868
vn 0.9116 -0.3061 0.2744
vn 0.6065 -0.2221 0.7634
vn 0.5622 -0.2781 0.7789
vn 0.2960 -0.1483 0.9436
vn 0.3083 -0.1885 0.9324
vn 0.2004 -0.1515 0.9679
vn 0.5676 -0.1132 0.8155
vn 0.6055 -0.3551 0.7122
vn 0.5281 -0.2038 0.8244
vn 0.3680 0.0723 0.9270
vn 0.9102 -0.2561 0.3255
vn 0.3713 0.4791 -0.7954
vn 0.1875 0.2053 -0.9606
vn 0.5930 0.2902 -0.7511
vn 0.1501 0.2569 -0.9547
vn -0.2998 0.4576 -0.8371
vn 0.1480 0.4973 -0.8548
vn 0.1376 0.0478 -0.9893
vn 0.3176 0.2221 -0.9218
vn 0.2169 0.4381 -0.8724
vn 0.2713 0.0990 -0.9574
vn 0.1681 0.3515 -0.9209
vn -0.0787 0.2253 -0.9711
vn -0.1210 0.5442 -0.8302
vn -0.1025 0.5572 -0.8240
vn 0.1446 0.6482 -0.7476
vn 0.7868 0.1526 -0.5980
vn 0.8976 0.1572 -0.4118
vn 0.9304 -0.1326 -0.3417
vn 0.9296 -0.2624 -0.2588
vn 0.7261 -0.0491 -0.6858
vn 0.9090 0.0068 -0.4167
vn 0.9102 0.0946 -0.4033
vn 0.8698 -0.1271 -0.4767
vn 0.7903 0.2564 -0.5565
vn 0.6931 0.0250 -0.7204
vn 0.8753 0.1743 -0.4511
vn 0.6584 -0.0552 -0.7506
vn 0.7137 0.0950 -0.6940
vn 0.5236 -0.0243 -0.8516
vn 0.5936 0.1121 -0.7969
vn 0.7163 0.2923 -0.6336
vn 0.4043 0.1019 -0.9089
vn 0.4756 -0.0302 -0.8791
vn 0.8931 -0.1975 -0.4043
vn 0.7368 -0.2944 -0.6087
vn 0.6331 -0.1832 -0.7521
vn 0.6518 -0.0811 -0.7540
vn 0.4164 -0.1597 -0.8950
vn 0.3643 -0.1198 -0.9235
vn 0.9408 0.1549 -0.3014
vn 0.9826 0.1463 -0.1141
vn 0.9773 0.0047 -0.2116
vn 0.9961 -0.0876 0.0065
vn 0.9807 -0.1435 -0.1329
vn 0.9997 0.0016 0.0229
vn 0.3605 0.0069 -0.9327
vn 0.9689 -0.1836 0.1659
vn 0.9847 -0.1742 -0.0071
vn 0.9666 -0.2507 0.0537
vn 0.9562 -0.2623 0.1300
vn 0.9396 -0.3277 -0.0992
vn 0.2497 -0.2782 0.9275
vn 0.4853 -0.4432 0.7537
vn 0.2351 -0.3626 0.9018
vn -0.0029 -0.2842 0.9588
vn 0.3530 -0.3164 0.8805
vn 0.3878 -0.1960 0.9007
vn 0.0843 -0.3777 0.9221
vn -0.2272 -0.1341 0.9646
vn 0.0605 -0.2237 0.9728
vn 0.5917 -0.4974 0.6344
vn 0.1560 -0.6116 0.7757
vn 0.6530 -0.3572 0.6678
vn 0.5199 -0.5168 0.6801
vn 0.2104 -0.5463 0.8107
vn 0.6502 -0.3631 0.6674
vn 0.7664 -0.3890 0.5112
vn 0.5116 -0.3338 0.7918
vn 0.8078 -0.3596 -0.4670
vn 0.7207 -0.2005 -0.6636
vn 0.8132 -0.2346 -0.5326
vn 0.5483 -0.2079 -0.8100
vn 0.8431 -0.4283 -0.3250
vn 0.5639 -0.2739 -0.7791
vn 0.5243 -0.2964 -0.7983
vn 0.1166 -0.0865 -0.9894
vn 0.2447 -0.6140 -0.7504
vn -0.0989 -0.3281 -0.9394
vn 0.5010 -0.3895 -0.7728
vn 0.3498 -0.6153 -0.7064
vn 0.2327 -0.8817 -0.4105
vn 0.5008 -0.3970 -0.7691
vn 0.1759 -0.2593 -0.9496
vn 0.6227 -0.6585 -0.4226
vn 0.6730 -0.4548 -0.5833
vn 0.5724 -0.6655 -0.4790
vn -0.7966 -0.6036 -0.0329
vn -0.5694 -0.7615 -0.3096
vn -0.6950 -0.7028 0.1514
vn -0.8004 -0.4055 -0.4415
vn -0.4898 -0.7300 -0.4765
vn -0.3262 -0.9048 -0.2736
vn 0.4778 -0.8784 -0.0105
vn 0.3828 -0.9225 0.0492
vn 0.1748 -0.9824 0.0658
vn 0.1688 -0.9626 -0.2119
vn 0.3627 -0.9293 -0.0694
vn 0.2404 -0.9704 -0.0235
vn -0.2991 -0.9393 0.1682
vn -0.4424 -0.7515 0.4894
vn 0.4726 -0.8716 -0.1298
vn -0.6876 -0.6471 0.3294
vn -0.1813 -0.9811 -0.0672
vn 0.4683 -0.8564 0.2174
vn 0.3112 -0.9504 -0.0041
vn -0.1785 -0.9710 0.1593
vn -0.3157 0.1523 -0.9366
vn 0.7523 -0.6294 -0.1948
vn 0.5817 -0.7552 -0.3022
vn 0.6954 -0.7179 0.0324
vn 0.5087 -0.8293 -0.2314
vn 0.4451 -0.8474 -0.2893
vn 0.5650 -0.8249 0.0156
vn 0.2585 -0.9175 -0.3023
vn 0.8929 -0.4265 -0.1444
vn 0.7279 -0.5595 -0.3965
vn 0.8500 -0.5255 -0.0384
vn 0.9481 -0.3142 -0.0495
vn 0.8762 -0.4801 -0.0418
vn 0.8818 -0.3927 0.2612
vn 0.9492 -0.3120 -0.0410
vn 0.7594 -0.6369 0.1330
vn 0.2187 -0.9510 -0.2184
vn 0.3996 -0.8640 0.3064
vn 0.2281 -0.9647 0.1315
vn 0.0891 -0.9959 -0.0127
vn 0.3144 -0.8854 0.3424
vn 0.1318 -0.9908 0.0295
vn 0.1319 -0.9497 0.2841
vn 0.2343 -0.8530 0.4664
vn 0.0112 -0.7627 0.6467
vn 0.4519 -0.6477 0.6134
vn 0.4700 -0.8827 0.0060
vn 0.4049 -0.7236 0.5589
vn 0.3706 -0.9281 0.0351
vn 0.0577 -0.9910 0.1207
vn 0.5155 -0.8458 0.1372
vn 0.5928 -0.7997 0.0954
vn 0.5554 -0.7595 0.3386
vn 0.7818 -0.6232 0.0172
vn 0.9125 -0.2783 0.2999
vn 0.7694 -0.4832 0.4177
vn 0.5448 -0.5634 0.6212
vn 0.7007 -0.6942 0.1648
vn 0.4655 -0.6220 0.6297
vn 0.8379 -0.4734 0.2715
vn 0.6749 -0.7131 0.1896
vn 0.6828 -0.7306 0.0002
vn 0.7559 -0.5649 0.3308
vn 0.6931 -0.4037 0.5972
vn 0.8864 -0.3109 0.3428
vn 0.3120 0.6803 -0.6632
vn 0.0932 -0.5564 0.8257
vn 0.0511 -0.9765 0.2095
vn 0.3326 -0.8986 -0.2862
vn 0.2002 -0.3935 -0.8973
vn 0.4743 -0.8804 -0.0039
vn 0.4456 -0.7270 -0.5224
vn 0.1878 -0.9792 -0.0766
vn 0.3503 -0.8828 0.3131
vn -0.0833 -0.8452 0.5279
vn -0.0683 -0.9964 0.0511
vn 0.3569 -0.5465 -0.7576
vn -0.1038 -0.9322 0.3466
vn -0.1195 -0.9928 -0.0056
vt 0.170356 0.613011
vt 0.134653 0.594795
vt 0.179249 0.578549
vt 0.139712 0.547618
vt 0.176384 0.505432
vt 0.087172 0.518001
vt 0.119633 0.485070
vt 0.121201 0.547360
vt 0.146833 0.488243
vt 0.147330 0.444503
vt 0.064762 0.574804
vt 0.089786 0.561054
vt 0.073806 0.605457
vt 0.101773 0.594593
vt 0.069838 0.538363
vt 0.088279 0.624846
vt 0.127721 0.632582
vt 0.168596 0.635747
vt 0.246028 0.447389
vt 0.216188 0.481796
vt 0.200550 0.404312
vt 0.265037 0.472145
vt 0.220651 0.526660
vt 0.254350 0.407424
vt 0.258116 0.571770
vt 0.209347 0.573604
vt 0.213077 0.617651
vt 0.084450 0.144709
vt 0.095605 0.070740
vt 0.127884 0.132817
vt 0.299441 0.355069
vt 0.038169 0.159229
vt 0.213083 0.090262
vt 0.175145 0.080771
vt 0.195942 0.053469
vt 0.134592 0.071105
vt 0.241339 0.052083
vt 0.065456 0.502138
vt 0.102808 0.463596
vt 0.159388 0.409707
vt 0.189922 0.131734
vt 0.089585 0.186878
vt 0.128979 0.207399
vt 0.156987 0.206091
vt 0.183244 0.185369
vt 0.222770 0.653686
vt 0.253013 0.615125
vt 0.264605 0.697496
vt 0.272412 0.658269
vt 0.188400 0.715962
vt 0.214425 0.723244
vt 0.271093 0.747200
vt 0.337025 0.703666
vt 0.070000 0.241037
vt 0.136599 0.294732
vt 0.111546 0.263814
vt 0.162105 0.267750
vt 0.178660 0.237380
vt 0.153349 0.319552
vt 0.170983 0.307928
vt 0.180054 0.254495
vt 0.193858 0.221179
vt 0.088046 0.687197
vt 0.150203 0.689454
vt 0.145012 0.351368
vt 0.293867 0.413670
vt 0.320821 0.484054
vt 0.354846 0.435051
vt 0.430434 0.464212
vt 0.385056 0.476864
vt 0.333099 0.389267
vt 0.382216 0.391152
vt 0.293297 0.518515
vt 0.351147 0.525614
vt 0.416629 0.512505
vt 0.373614 0.666324
vt 0.329632 0.670727
vt 0.354979 0.614625
vt 0.295268 0.624032
vt 0.368987 0.580688
vt 0.305863 0.566903
vt 0.403993 0.538688
vt 0.452569 0.594848
vt 0.346319 0.765263
vt 0.395677 0.715287
vt 0.432527 0.702342
vt 0.397669 0.753748
vt 0.308101 0.746763
vt 0.461790 0.556976
vt 0.516625 0.596438
vt 0.421662 0.683482
vt 0.469982 0.661866
vt 0.409289 0.648777
vt 0.472222 0.644390
vt 0.519317 0.673208
vt 0.440735 0.604178
vt 0.399762 0.622817
vt 0.516669 0.616414
vt 0.476327 0.623060
vt 0.461361 0.704426
vt 0.498683 0.727477
vt 0.468131 0.742281
vt 0.477924 0.767418
vt 0.435591 0.766763
vt 0.460586 0.779934
vt 0.424545 0.774574
vt 0.406135 0.764907
vt 0.492219 0.673224
vt 0.569800 0.699692
vt 0.552865 0.716595
vt 0.536266 0.693704
vt 0.550240 0.743077
vt 0.538201 0.754943
vt 0.359221 0.793130
vt 0.541084 0.652528
vt 0.496022 0.442229
vt 0.431082 0.418566
vt 0.491746 0.384929
vt 0.477355 0.482179
vt 0.520510 0.417482
vt 0.550817 0.403443
vt 0.554848 0.455706
vt 0.406553 0.340731
vt 0.036096 0.227444
vt 0.046239 0.320113
vt 0.002325 0.265589
vt 0.562206 0.354228
vt 0.108411 0.389248
vt 0.030718 0.396833
vt 0.062291 0.360799
vt 0.011446 0.360609
vt 0.104332 0.349009
vt 0.099679 0.306917
vt 0.577360 0.423601
vt 0.692523 0.035217
vt 0.631493 0.055758
vt 0.664075 0.000002
vt 0.498510 0.330446
vt 0.630602 0.403384
vt 0.616007 0.446677
vt 0.586957 0.412051
vt 0.634245 0.109230
vt 0.676416 0.072712
vt 0.726155 0.147915
vt 0.687294 0.175291
vt 0.681949 0.140733
vt 0.707562 0.103509
vt 0.728574 0.130688
vt 0.783060 0.089433
vt 0.734911 0.067358
vt 0.782076 0.039431
vt 0.643424 0.157382
vt 0.536492 0.522697
vt 0.530413 0.492230
vt 0.583661 0.529074
vt 0.577240 0.484199
vt 0.511895 0.564754
vt 0.496644 0.521555
vt 0.540809 0.556788
vt 0.528136 0.582773
vt 0.654853 0.595003
vt 0.642770 0.608672
vt 0.636859 0.582458
vt 0.607068 0.575779
vt 0.624423 0.618491
vt 0.596177 0.583661
vt 0.599614 0.639696
vt 0.581934 0.608404
vt 0.578855 0.552245
vt 0.601853 0.688848
vt 0.601947 0.656507
vt 0.639767 0.672443
vt 0.570657 0.674018
vt 0.563474 0.635253
vt 0.552279 0.613810
vt 0.668523 0.515216
vt 0.660946 0.528937
vt 0.641590 0.492944
vt 0.628622 0.526863
vt 0.599522 0.482835
vt 0.681885 0.581734
vt 0.610500 0.532535
vt 0.643786 0.731210
vt 0.623111 0.721258
vt 0.636871 0.708689
vt 0.592368 0.372541
vt 0.588395 0.348910
vt 0.613379 0.366580
vt 0.617211 0.708470
vt 0.668808 0.697421
vt 0.623672 0.232383
vt 0.610525 0.226655
vt 0.617463 0.182559
vt 0.585275 0.261811
vt 0.692285 0.564830
vt 0.714011 0.614033
vt 0.643485 0.228721
vt 0.643619 0.200456
vt 0.665218 0.201204
vt 0.570107 0.759286
vt 0.602913 0.734933
vt 0.593806 0.723717
vt 0.628677 0.741277
vt 0.584555 0.772725
vt 0.594898 0.266337
vt 0.512234 0.779365
vt 0.549596 0.775501
vt 0.612262 0.275439
vt 0.606817 0.298517
vt 0.589514 0.293292
vt 0.652210 0.254886
vt 0.661161 0.222287
vt 0.664638 0.243998
vt 0.626318 0.370926
vt 0.616966 0.347251
vt 0.695472 0.197690
vt 0.478711 0.791952
vt 0.608418 0.334600
vt 0.581503 0.322366
vt 0.620134 0.763094
vt 0.609078 0.763208
vt 0.045092 0.669888
vt 0.062385 0.705584
vt 0.113629 0.754766
vt 0.091306 0.770654
vt 0.098141 0.717200
vt 0.126075 0.804998
vt 0.428269 0.026501
vt 0.473981 0.015092
vt 0.490394 0.025363
vt 0.422393 0.014636
vt 0.098366 0.810255
vt 0.070772 0.748728
vt 0.237432 0.192076
vt 0.216497 0.182019
vt 0.236715 0.141864
vt 0.249789 0.155935
vt 0.250256 0.111308
vt 0.289786 0.120327
vt 0.298901 0.076775
vt 0.311314 0.086169
vt 0.237703 0.098627
vt 0.300339 0.161467
vt 0.328511 0.137392
vt 0.307966 0.193219
vt 0.260518 0.194035
vt 0.322990 0.101524
vt 0.320846 0.242200
vt 0.329037 0.183794
vt 0.370138 0.199253
vt 0.267180 0.042668
vt 0.017034 0.621537
vt 0.000294 0.603430
vt 0.377257 0.090430
vt 0.370416 0.118806
vt 0.340290 0.123062
vt 0.002210 0.617115
vt 0.923251 0.613661
vt 0.872981 0.649946
vt 0.866969 0.602815
vt 0.901916 0.594320
vt 0.922549 0.577828
vt 0.924294 0.600370
vt 0.031536 0.578639
vt 0.004854 0.588578
vt 0.881190 0.670175
vt 0.963247 0.549136
vt 0.849235 0.583820
vt 0.905061 0.573789
vt 0.963995 0.628994
vt 0.962899 0.580406
vt 0.976708 0.566855
vt 0.953935 0.582493
vt 0.934367 0.599337
vt 0.971898 0.548833
vt 0.855911 0.571023
vt 0.288819 0.047686
vt 0.273830 0.000399
vt 0.762751 0.573976
vt 0.753829 0.554301
vt 0.762658 0.531847
vt 0.424857 0.115127
vt 0.370346 0.071401
vt 0.412290 0.077139
vt 0.390301 0.047298
vt 0.434869 0.050655
vt 0.345152 0.054905
vt 0.381694 0.031663
vt 0.322768 0.062695
vt 0.812687 0.559468
vt 0.726460 0.550692
vt 0.854253 0.669327
vt 0.400133 0.008443
vt 0.982292 0.589698
vt 0.726380 0.524838
vt 0.466556 0.036669
vt 0.376360 0.159318
vt 0.459454 0.098151
vt 0.468284 0.080099
vt 0.380119 0.244271
vt 0.421020 0.179832
vt 0.463317 0.171631
vt 0.431105 0.144037
vt 0.404069 0.135916
vt 0.496176 0.135607
vt 0.490465 0.170792
vt 0.455702 0.136026
vt 0.498244 0.084319
vt 0.452552 0.070643
vt 0.479376 0.059104
vt 0.546102 0.067257
vt 0.520601 0.054111
vt 0.282635 0.206471
vt 0.229276 0.235282
vt 0.539488 0.168935
vt 0.516105 0.176291
vt 0.524871 0.132443
vt 0.473789 0.270004
vt 0.488776 0.232016
vt 0.492215 0.300878
vt 0.422671 0.256679
vt 0.452126 0.226896
vt 0.862515 0.708084
vt 0.065408 0.636105
vt 0.167687 0.818179
vt 0.209564 0.867447
vt 0.179619 0.864031
vt 0.532454 0.021670
vt 0.531402 0.033484
vt 0.155950 0.857745
vt 0.155079 0.755260
vt 0.597307 0.056635
vt 0.560329 0.060743
vt 0.199538 0.810936
vt 0.210703 0.847610
vt 0.209409 0.778735
vt 0.252233 0.845701
vt 0.259331 0.822169
vt 0.280968 0.844480
vt 0.322255 0.826767
vt 0.316462 0.796342
vt 0.268077 0.786099
vt 0.285543 0.884694
vt 0.929613 0.523051
vt 0.932770 0.474870
vt 0.954386 0.497958
vt 0.901728 0.550667
vt 0.863191 0.532672
vt 0.954989 0.460279
vt 0.959355 0.450603
vt 0.990266 0.479667
vt 0.564176 0.147780
vt 0.275219 0.910625
vt 0.205959 0.907744
vt 0.258644 0.896448
vt 0.984904 0.522721
vt 0.957743 0.549761
vt 0.980679 0.500883
vt 0.567346 0.119741
vt 0.524601 0.117876
vt 0.597609 0.098887
vt 0.631074 0.079810
vt 0.901324 0.430398
vt 0.908450 0.408675
vt 0.952329 0.429442
vt 0.911945 0.446275
vt 0.894320 0.466476
vt 0.847784 0.447795
vt 0.882356 0.427551
vt 0.901918 0.484441
vt 0.882906 0.509493
vt 0.548755 0.292863
vt 0.526632 0.289434
vt 0.552554 0.243715
vt 0.539739 0.208742
vt 0.981662 0.447506
vt 0.928184 0.392977
vt 0.320163 0.852865
vt 0.821168 0.473488
vt 0.832367 0.497912
vt 0.810992 0.533155
vt 0.809714 0.504090
vt 0.387153 0.866665
vt 0.312132 0.859895
vt 0.860300 0.562755
vt 0.343287 0.906838
vt 0.354260 0.878848
vt 0.392857 0.911649
vt 0.400157 0.889223
vt 0.919255 0.574108
vt 0.276121 0.867134
vt 0.510854 0.234836
vt 0.818531 0.461629
vt 0.277257 0.274428
vt 0.282661 0.262175
vt 0.318573 0.288177
vt 0.269769 0.242255
vt 0.240857 0.269496
vt 0.972180 0.091291
vt 0.885006 0.077327
vt 0.946332 0.055940
vt 0.209368 0.300578
vt 0.226951 0.290848
vt 0.253977 0.297022
vt 0.888685 0.066711
vt 0.873629 0.055450
vt 0.940380 0.143496
vt 0.219879 0.269326
vt 0.209645 0.238032
vt 0.198684 0.265175
vt 0.186162 0.303787
vt 0.907202 0.283108
vt 0.856510 0.299502
vt 0.928044 0.237766
vt 0.936749 0.261419
vt 0.958714 0.273997
vt 0.956630 0.215325
vt 0.892030 0.242607
vt 0.923373 0.200275
vt 0.954294 0.186116
vt 0.908101 0.185404
vt 0.961235 0.195011
vt 0.971356 0.196631
vt 0.999974 0.159300
vt 0.953081 0.164058
vt 0.429387 0.336827
vt 0.385329 0.305943
vt 0.428466 0.317208
vt 0.364196 0.314889
vt 0.359229 0.273749
vt 0.869415 0.268154
vt 0.858307 0.232713
vt 0.882015 0.212511
vt 0.859378 0.207692
vt 0.868977 0.172914
vt 0.835838 0.146273
vt 0.876097 0.127529
vt 0.837397 0.124536
vt 0.463598 0.318738
vt 0.444259 0.294832
vt 0.948269 0.301082
vt 0.898827 0.324211
vt 0.914647 0.362558
vt 0.301491 0.324476
vt 0.397448 0.278334
vt 0.852303 0.086458
vt 0.869807 0.411661
vt 0.891666 0.395762
vt 0.832414 0.382731
vt 0.861593 0.370408
vt 0.123214 0.727304
vt 0.221194 0.219412
vt 0.837606 0.328567
vt 0.470495 0.858351
vt 0.415731 0.831993
vt 0.450852 0.834544
vt 0.373538 0.851219
vt 0.364932 0.817643
vt 0.398933 0.801579
vt 0.471623 0.829286
vt 0.510027 0.847306
vt 0.517044 0.811053
vt 0.767914 0.531037
vt 0.728192 0.518940
vt 0.721977 0.492800
vt 0.475880 0.865674
vt 0.441234 0.884442
vt 0.789201 0.526311
vt 0.796359 0.554687
vt 0.434503 0.871431
vt 0.398949 0.867923
vt 0.761120 0.499182
vt 0.796398 0.479507
vt 0.810136 0.255512
vt 0.806122 0.278714
vt 0.823513 0.165561
vt 0.796494 0.118504
vt 0.821760 0.068596
vt 0.781625 0.158142
vt 0.760096 0.137836
vt 0.740332 0.181121
vt 0.698942 0.212922
vt 0.746980 0.208799
vt 0.786201 0.190376
vt 0.822714 0.221331
vt 0.779221 0.260716
vt 0.765562 0.240344
vt 0.788731 0.212855
vt 0.834010 0.188599
vt 0.654041 0.313877
vt 0.652944 0.334726
vt 0.637450 0.326757
vt 0.633305 0.357682
vt 0.593787 0.313447
vt 0.709767 0.255832
vt 0.684929 0.280704
vt 0.705514 0.244749
vt 0.711147 0.276589
vt 0.684276 0.250940
vt 0.666319 0.275616
vt 0.690954 0.340333
vt 0.722017 0.305267
vt 0.744290 0.304731
vt 0.670125 0.318989
vt 0.690195 0.315560
vt 0.684817 0.329559
vt 0.674017 0.296650
vt 0.650908 0.288198
vt 0.678617 0.364307
vt 0.777152 0.288794
vt 0.761528 0.272139
vt 0.773806 0.317891
vt 0.724610 0.237865
vt 0.718130 0.225584
vt 0.804815 0.309987
vt 0.793550 0.330592
vt 0.755100 0.328309
vt 0.820107 0.391493
vt 0.795636 0.373402
vt 0.837466 0.352939
vt 0.780881 0.351746
vt 0.819868 0.368733
vt 0.688474 0.409090
vt 0.666509 0.394289
vt 0.667951 0.364315
vt 0.704429 0.370518
vt 0.651472 0.395135
vt 0.697438 0.429800
vt 0.576565 0.841438
vt 0.571086 0.819033
vt 0.615262 0.793417
vt 0.592288 0.789223
vt 0.705401 0.401242
vt 0.546896 0.838618
vt 0.544178 0.802309
vt 0.779051 0.380669
vt 0.736692 0.374112
vt 0.749973 0.354733
vt 0.695061 0.361837
vt 0.720436 0.401637
vt 0.810707 0.408123
vt 0.765858 0.457057
vt 0.743520 0.459736
vt 0.739431 0.419589
vt 0.703600 0.457853
vt 0.790774 0.404176
vt 0.757961 0.385953
vt 0.751146 0.396069
vt 0.769700 0.419421
vt 0.788045 0.452139
vt 0.672420 0.430474
vt 0.813444 0.435578
vt 0.044963 0.534553
vt 0.463954 0.797117
vt 0.639153 0.751192
vt 0.507473 0.799863
vt 0.172236 0.342562
vt 0.982753 0.528121
vt 0.685520 0.622509
vt 0.576113 0.304832
vt 0.616828 0.637646
vt 0.651936 0.653812
vt 0.684759 0.643721
vt 0.677721 0.658106
vt 0.723026 0.625625
vt 0.712951 0.650381
vt 0.703236 0.613787
vt 0.712681 0.676184
vt 0.702095 0.662846
vt 0.695317 0.667459
vt 0.670627 0.674112
vt 0.696066 0.685561
vt 0.703898 0.648030
vt 0.692745 0.635071
vt 0.577554 0.280016
s 1
f 1/1/1 3/2/3 4/3/4
f 4/3/4 3/2/3 5/4/5
f 5/4/5 6/5/6 4/3/4
f 7/6/7 8/7/8 17/8/17
f 9/9/9 17/8/17 8/7/8
f 9/9/9 6/5/6 5/4/5
f 10/10/10 6/5/6 9/9/9
f 11/11/11 12/12/12 13/13/13
f 14/14/14 13/13/13 12/12/12
f 11/11/11 15/15/15 12/12/12
f 15/15/15 7/6/7 12/12/12
f 12/12/12 7/6/7 17/8/17
f 201/16/201 14/14/14 16/17/16
f 14/14/14 17/8/17 3/2/3
f 14/14/14 12/12/12 17/8/17
f 5/4/5 3/2/3 17/8/17
f 16/17/16 14/14/14 3/2/3
f 16/17/16 1/1/1 2/18/2
f 19/19/19 20/20/20 21/21/21
f 21/21/21 20/20/20 6/5/6
f 22/22/22 23/23/23 20/20/20
f 22/22/22 20/20/20 19/19/19
f 19/19/19 21/21/21 24/24/24
f 23/23/23 26/25/26 27/26/27
f 28/27/28 2/18/2 1/1/1
f 23/23/23 6/5/6 20/20/20
f 23/23/23 27/26/27 4/3/4
f 4/3/4 6/5/6 23/23/23
f 6/5/6 10/10/10 21/21/21
f 33/28/33 21/29/21 32/30/32
f 24/24/24 21/21/21 25/31/25
f 25/32/25 21/29/21 33/28/33
f 34/33/34 35/34/35 36/35/36
f 35/34/35 37/36/37 36/35/36
f 34/33/34 36/35/36 38/37/38
f 38/38/38 8/7/8 7/6/7
f 36/39/36 8/7/8 38/38/38
f 36/39/36 10/10/10 8/7/8
f 37/40/37 10/10/10 36/39/36
f 35/34/35 32/30/32 37/36/37
f 34/33/34 30/41/30 35/34/35
f 32/30/32 35/34/35 30/41/30
f 37/40/37 21/21/21 10/10/10
f 21/29/21 37/36/37 32/30/32
f 39/42/39 32/30/32 49/43/49
f 39/42/39 33/28/33 32/30/32
f 10/10/10 9/9/9 8/7/8
f 40/44/40 49/43/49 31/45/31
f 31/45/31 49/43/49 30/41/30
f 42/46/42 28/27/28 41/47/41
f 46/48/46 42/46/42 43/49/43
f 44/50/44 2/18/2 42/46/42
f 44/50/44 42/46/42 45/51/45
f 46/48/46 45/51/45 42/46/42
f 48/52/48 45/51/45 46/48/46
f 48/52/48 46/48/46 81/53/81
f 114/54/114 39/42/39 49/43/49
f 51/55/51 52/56/52 50/57/50
f 50/57/50 40/44/40 53/58/53
f 50/57/50 49/43/49 40/44/40
f 50/57/50 52/56/52 49/43/49
f 50/57/50 54/59/54 51/55/51
f 50/57/50 55/60/55 54/59/54
f 56/61/56 50/57/50 53/58/53
f 53/58/53 40/44/40 57/62/57
f 17/8/17 9/9/9 5/4/5
f 201/16/201 16/17/16 18/63/18
f 201/16/201 13/13/13 14/14/14
f 1/1/1 16/17/16 3/2/3
f 29/64/29 2/18/2 44/50/44
f 49/43/49 32/30/32 30/41/30
f 38/38/38 7/6/7 15/15/15
f 41/47/41 28/27/28 26/25/26
f 2/18/2 28/27/28 42/46/42
f 114/54/114 49/43/49 52/56/52
f 58/65/58 54/59/54 55/60/55
f 57/62/57 40/44/40 31/45/31
f 59/66/59 22/22/22 19/19/19
f 60/67/60 22/22/22 61/68/61
f 61/68/61 22/22/22 59/66/59
f 61/68/61 64/69/64 65/70/65
f 60/67/60 61/68/61 65/70/65
f 62/71/62 59/66/59 25/31/25
f 61/68/61 62/71/62 63/72/63
f 61/68/61 59/66/59 62/71/62
f 60/67/60 66/73/66 22/22/22
f 67/74/67 65/70/65 68/75/68
f 68/75/68 65/70/65 64/69/64
f 72/76/72 73/77/73 74/78/74
f 73/77/73 43/49/43 75/79/75
f 76/80/76 74/78/74 75/79/75
f 71/81/71 75/79/75 26/25/26
f 75/79/75 71/81/71 76/80/76
f 46/48/46 73/77/73 81/53/81
f 73/77/73 46/48/46 43/49/43
f 69/82/69 76/80/76 67/74/67
f 76/80/76 71/81/71 67/74/67
f 77/83/77 74/78/74 76/80/76
f 80/84/80 81/53/81 78/85/78
f 79/86/79 82/87/82 78/85/78
f 82/87/82 80/84/80 78/85/78
f 47/88/47 81/53/81 80/84/80
f 77/83/77 70/89/70 83/90/83
f 76/80/76 70/89/70 77/83/77
f 70/89/70 69/82/69 68/75/68
f 79/86/79 78/85/78 84/91/84
f 79/86/79 84/91/84 85/92/85
f 85/92/85 84/91/84 86/93/86
f 85/92/85 87/94/87 102/95/102
f 86/93/86 87/94/87 85/92/85
f 74/78/74 88/96/88 89/97/89
f 91/98/91 90/99/90 88/96/88
f 91/98/91 88/96/88 77/83/77
f 86/93/86 89/97/89 87/94/87
f 74/78/74 86/93/86 72/76/72
f 86/93/86 74/78/74 89/97/89
f 81/53/81 84/91/84 78/85/78
f 84/91/84 81/53/81 72/76/72
f 81/53/81 73/77/73 72/76/72
f 95/100/95 94/101/94 93/102/93
f 97/103/97 92/104/92 93/102/93
f 96/105/96 92/104/92 97/103/97
f 98/106/98 99/107/99 92/104/92
f 93/102/93 92/104/92 95/100/95
f 92/104/92 99/107/99 95/100/95
f 82/87/82 79/86/79 99/107/99
f 95/100/95 99/107/99 85/92/85
f 99/107/99 79/86/79 85/92/85
f 95/100/95 101/108/101 102/95/102
f 95/100/95 85/92/85 101/108/101
f 103/109/103 184/110/184 94/101/94
f 104/111/104 103/109/103 94/101/94
f 105/112/105 93/102/93 94/101/94
f 93/102/93 105/112/105 106/113/106
f 106/113/106 97/103/97 93/102/93
f 102/95/102 101/108/101 85/92/85
f 67/74/67 68/75/68 69/82/69
f 77/83/77 88/96/88 74/78/74
f 82/87/82 100/114/100 80/84/80
f 70/89/70 76/80/76 69/82/69
f 161/115/161 87/94/87 90/99/90
f 102/95/102 94/101/94 95/100/95
f 107/116/107 108/117/108 117/118/117
f 107/116/107 109/119/109 64/69/64
f 110/120/110 111/121/111 112/122/112
f 110/120/110 107/116/107 117/118/117
f 117/118/117 108/117/108 63/72/63
f 63/72/63 62/71/62 113/123/113
f 114/54/114 115/124/115 39/42/39
f 52/56/52 116/125/116 114/54/114
f 115/124/115 25/32/25 39/42/39
f 116/125/116 113/126/113 114/54/114
f 114/54/114 113/126/113 115/124/115
f 115/124/115 113/126/113 25/32/25
f 117/118/117 111/121/111 110/120/110
f 111/121/111 117/118/117 119/127/119
f 122/128/122 121/129/121 120/130/120
f 121/129/121 124/131/124 116/125/116
f 120/130/120 121/129/121 116/125/116
f 122/128/122 123/132/123 58/65/58
f 58/65/58 123/132/123 54/59/54
f 123/132/123 51/55/51 54/59/54
f 118/133/118 123/132/123 116/125/116
f 123/132/123 118/133/118 51/55/51
f 124/131/124 113/126/113 116/125/116
f 119/127/119 125/134/125 111/121/111
f 123/132/123 120/130/120 116/125/116
f 123/132/123 122/128/122 120/130/120
f 121/135/121 119/136/119 124/137/124
f 119/127/119 117/118/117 124/138/124
f 124/138/124 117/118/117 113/123/113
f 119/127/119 128/139/128 130/140/130
f 130/140/130 129/141/129 119/127/119
f 129/141/129 130/140/130 125/134/125
f 129/141/129 125/134/125 119/127/119
f 128/142/128 119/136/119 131/143/131
f 121/135/121 131/143/131 119/136/119
f 413/144/413 132/145/132 133/146/133
f 133/146/133 136/147/136 134/148/134
f 419/149/419 134/148/134 136/147/136
f 136/147/136 135/150/135 419/149/419
f 419/149/419 135/150/135 122/151/122
f 136/147/136 131/143/131 135/150/135
f 135/150/135 131/143/131 121/135/121
f 135/150/135 121/135/121 122/151/122
f 62/71/62 25/31/25 113/123/113
f 116/125/116 52/56/52 118/133/118
f 131/143/131 136/147/136 128/142/128
f 133/146/133 127/152/127 128/142/128
f 133/146/133 128/142/128 136/147/136
f 137/153/137 138/154/138 139/155/139
f 140/156/140 139/155/139 138/154/138
f 140/156/140 138/154/138 112/122/112
f 141/157/141 70/89/70 142/158/142
f 138/154/138 107/116/107 112/122/112
f 107/116/107 138/154/138 109/119/109
f 137/153/137 109/119/109 138/154/138
f 109/119/109 137/153/137 142/158/142
f 143/159/143 142/158/142 137/153/137
f 141/157/141 142/158/142 143/159/143
f 141/157/141 144/160/144 70/89/70
f 83/90/83 70/89/70 144/160/144
f 147/161/147 148/162/148 149/163/149
f 156/164/156 148/162/148 151/165/151
f 151/165/151 152/166/152 156/164/156
f 153/167/153 154/168/154 151/165/151
f 152/166/152 151/165/151 154/168/154
f 143/159/143 152/166/152 154/168/154
f 144/160/144 143/159/143 154/168/154
f 143/159/143 155/169/155 152/166/152
f 139/155/139 155/169/155 137/153/137
f 148/162/148 156/164/156 149/163/149
f 152/166/152 155/169/155 156/164/156
f 156/164/156 155/169/155 139/155/139
f 158/170/158 145/171/145 146/172/146
f 158/170/158 159/173/159 145/171/145
f 160/174/160 153/167/153 145/171/145
f 91/98/91 161/115/161 90/99/90
f 159/173/159 158/170/158 103/109/103
f 161/115/161 159/173/159 104/111/104
f 161/115/161 145/171/145 159/173/159
f 161/115/161 160/174/160 145/171/145
f 143/159/143 137/153/137 155/169/155
f 160/174/160 162/175/162 153/167/153
f 153/167/153 162/175/162 154/168/154
f 161/115/161 91/98/91 160/174/160
f 91/98/91 162/175/162 160/174/160
f 154/168/154 162/175/162 144/160/144
f 162/175/162 83/90/83 144/160/144
f 91/98/91 83/90/83 162/175/162
f 163/176/163 164/177/164 166/178/166
f 166/178/166 164/177/164 165/179/165
f 165/179/165 167/180/167 166/178/166
f 166/178/166 167/180/167 130/140/130
f 147/161/147 164/177/164 168/181/168
f 147/161/147 149/163/149 164/177/164
f 164/177/164 149/163/149 165/179/165
f 149/163/149 157/182/157 165/179/165
f 140/156/140 167/180/167 165/179/165
f 167/180/167 125/134/125 130/140/130
f 167/180/167 112/122/112 125/134/125
f 140/156/140 165/179/165 157/182/157
f 157/182/157 139/155/139 140/156/140
f 140/156/140 112/122/112 167/180/167
f 171/183/171 172/184/172 170/185/170
f 170/186/170 173/187/173 171/188/171
f 174/189/174 170/185/170 172/184/172
f 170/185/170 174/189/174 146/172/146
f 174/189/174 158/170/158 146/172/146
f 146/172/146 173/190/173 170/185/170
f 176/191/176 178/192/178 163/193/163
f 176/191/176 169/194/169 178/192/178
f 164/177/164 163/176/163 178/195/178
f 169/196/169 168/181/168 178/195/178
f 179/197/179 176/191/176 177/198/177
f 179/197/179 177/198/177 180/199/180
f 180/199/180 177/198/177 127/152/127
f 176/191/176 163/193/163 177/198/177
f 127/152/127 132/145/132 180/199/180
f 132/145/132 127/152/127 133/146/133
f 181/200/181 97/103/97 106/113/106
f 181/200/181 106/113/106 182/201/182
f 105/112/105 183/202/183 182/201/182
f 184/110/184 174/189/174 183/202/183
f 105/112/105 184/110/184 183/202/183
f 105/112/105 182/201/182 106/113/106
f 105/112/105 94/101/94 184/110/184
f 182/201/182 172/184/172 185/203/185
f 182/201/182 183/202/183 172/184/172
f 183/202/183 174/189/174 172/184/172
f 186/204/186 181/200/181 182/201/182
f 161/115/161 104/111/104 102/95/102
f 184/110/184 103/109/103 174/189/174
f 159/173/159 103/109/103 104/111/104
f 141/157/141 143/159/143 144/160/144
f 91/98/91 77/83/77 83/90/83
f 156/164/156 157/182/157 149/163/149
f 156/164/156 139/155/139 157/182/157
f 175/205/175 169/194/169 176/191/176
f 178/195/178 168/181/168 164/177/164
f 185/203/185 172/184/172 171/183/171
f 174/189/174 103/109/103 158/170/158
f 187/206/187 181/200/181 188/207/188
f 189/208/189 425/209/425 175/205/175
f 190/210/190 175/205/175 425/209/425
f 436/211/436 191/212/191 192/213/192
f 193/214/193 171/188/171 194/215/194
f 180/199/180 132/145/132 417/216/417
f 65/70/65 67/74/67 60/67/60
f 73/77/73 75/79/75 74/78/74
f 84/91/84 72/76/72 86/93/86
f 102/95/102 87/94/87 161/115/161
f 195/217/195 96/105/96 187/206/187
f 181/200/181 187/206/187 96/105/96
f 181/200/181 96/105/96 97/103/97
f 94/101/94 102/95/102 104/111/104
f 66/73/66 60/67/60 67/74/67
f 92/104/92 96/105/96 98/106/98
f 61/68/61 63/72/63 108/117/108
f 68/75/68 64/69/64 109/119/109
f 63/72/63 113/123/113 117/118/117
f 130/140/130 128/139/128 166/178/166
f 127/152/127 163/193/163 128/142/128
f 163/176/163 166/178/166 128/139/128
f 112/122/112 111/121/111 125/134/125
f 112/122/112 107/116/107 110/120/110
f 109/119/109 142/158/142 68/75/68
f 142/158/142 70/89/70 68/75/68
f 175/205/175 176/191/176 436/211/436
f 180/199/180 191/212/191 179/197/179
f 163/193/163 127/152/127 177/198/177
f 185/203/185 186/204/186 182/201/182
f 188/207/188 181/200/181 186/204/186
f 196/218/196 173/187/173 197/219/197
f 191/212/191 436/211/436 179/197/179
f 179/197/179 436/211/436 176/191/176
f 198/220/198 185/203/185 171/183/171
f 186/204/186 185/203/185 199/221/199
f 23/23/23 66/73/66 26/25/26
f 22/22/22 66/73/66 23/23/23
f 41/47/41 26/25/26 75/79/75
f 59/66/59 24/24/24 25/31/25
f 19/19/19 24/24/24 59/66/59
f 48/52/48 81/53/81 47/88/47
f 118/133/118 52/56/52 51/55/51
f 200/222/200 201/16/201 202/223/202
f 203/224/203 204/225/204 210/226/210
f 204/225/204 203/224/203 205/227/205
f 202/223/202 18/63/18 210/226/210
f 202/223/202 201/16/201 18/63/18
f 206/228/206 207/229/207 208/230/208
f 206/228/206 209/231/209 207/229/207
f 207/232/207 209/233/209 204/225/204
f 209/233/209 210/226/210 204/225/204
f 202/223/202 210/226/210 209/233/209
f 214/234/214 215/235/215 216/236/216
f 212/237/212 216/236/216 213/238/213
f 216/236/216 215/235/215 30/41/30
f 218/239/218 219/240/219 220/241/220
f 218/239/218 38/37/38 219/240/219
f 213/238/213 217/242/217 218/239/218
f 218/239/218 217/242/217 38/37/38
f 222/243/222 223/244/223 271/245/271
f 224/246/224 218/239/218 222/243/222
f 223/244/223 222/243/222 225/247/225
f 222/243/222 220/241/220 225/247/225
f 222/243/222 218/239/218 220/241/220
f 224/246/224 212/237/212 218/239/218
f 212/237/212 213/238/213 218/239/218
f 213/238/213 216/236/216 217/242/217
f 212/237/212 214/234/214 216/236/216
f 270/248/270 226/249/226 227/250/227
f 223/244/223 226/249/226 271/245/271
f 219/240/219 38/37/38 228/251/228
f 230/252/230 231/253/231 13/13/13
f 225/247/225 233/254/233 234/255/234
f 234/255/234 229/256/229 225/247/225
f 231/253/231 230/252/230 235/257/235
f 235/258/235 239/259/239 252/260/252
f 252/260/252 237/261/237 235/258/235
f 237/261/237 238/262/238 231/263/231
f 237/261/237 231/263/231 235/258/235
f 232/264/232 231/253/231 236/265/236
f 230/252/230 200/222/200 235/257/235
f 235/258/235 200/266/200 239/259/239
f 231/263/231 238/262/238 241/267/241
f 237/261/237 242/268/242 236/269/236
f 252/260/252 242/268/242 237/261/237
f 238/270/238 244/271/244 240/272/240
f 238/273/238 236/274/236 244/275/244
f 236/269/236 242/268/242 243/276/243
f 243/277/243 228/251/228 236/278/236
f 237/261/237 236/269/236 238/262/238
f 236/274/236 231/263/231 244/275/244
f 245/279/245 246/280/246 240/281/240
f 258/282/258 249/283/249 247/284/247
f 249/283/249 248/285/248 247/284/247
f 248/285/248 250/286/250 247/284/247
f 252/287/252 251/288/251 248/285/248
f 252/287/252 248/285/248 249/283/249
f 233/254/233 225/247/225 249/283/249
f 225/247/225 220/241/220 249/283/249
f 220/241/220 242/289/242 249/283/249
f 249/283/249 242/289/242 252/287/252
f 220/241/220 219/240/219 242/289/242
f 242/268/242 219/290/219 243/276/243
f 244/291/244 246/280/246 245/279/245
f 239/259/239 251/292/251 252/260/252
f 248/285/248 251/288/251 202/293/202
f 240/272/240 241/294/241 238/270/238
f 200/266/200 251/292/251 239/259/239
f 241/267/241 244/275/244 231/263/231
f 240/281/240 246/280/246 241/295/241
f 244/291/244 241/295/241 246/280/246
f 208/230/208 253/296/253 206/228/206
f 250/286/250 206/228/206 253/296/253
f 250/286/250 248/285/248 206/228/206
f 223/244/223 254/297/254 227/250/227
f 258/282/258 247/284/247 257/298/257
f 247/284/247 255/299/255 257/298/257
f 259/300/259 227/250/227 260/301/260
f 261/302/261 260/301/260 262/303/262
f 254/297/254 260/301/260 227/250/227
f 263/304/263 262/303/262 260/301/260
f 262/303/262 263/304/263 258/282/258
f 263/304/263 260/301/260 254/297/254
f 258/282/258 263/304/263 233/254/233
f 263/304/263 234/255/234 233/254/233
f 264/305/264 265/306/265 266/307/266
f 265/306/265 261/302/261 266/307/266
f 266/307/266 257/298/257 264/305/264
f 261/302/261 262/303/262 266/307/266
f 262/303/262 258/282/258 266/307/266
f 264/305/264 257/298/257 255/299/255
f 256/308/256 255/299/255 267/309/267
f 267/309/267 250/286/250 268/310/268
f 250/286/250 253/296/253 268/310/268
f 268/310/268 298/311/298 256/308/256
f 256/308/256 267/309/267 268/310/268
f 268/310/268 269/312/269 298/311/298
f 268/310/268 253/296/253 269/312/269
f 208/230/208 269/312/269 253/296/253
f 221/313/221 341/314/341 224/246/224
f 226/249/226 270/248/270 271/245/271
f 221/313/221 222/243/222 271/245/271
f 214/234/214 224/246/224 341/314/341
f 259/300/259 270/248/270 227/250/227
f 264/305/264 273/315/273 274/316/274
f 264/305/264 275/317/275 273/315/273
f 255/299/255 275/317/275 264/305/264
f 377/318/377 277/319/277 278/320/278
f 276/321/276 279/322/279 377/318/377
f 277/319/277 377/318/377 279/322/279
f 279/322/279 276/321/276 260/301/260
f 276/321/276 259/300/259 260/301/260
f 279/322/279 261/302/261 277/319/277
f 277/319/277 261/302/261 265/306/265
f 279/322/279 260/301/260 261/302/261
f 264/305/264 274/316/274 265/306/265
f 214/234/214 212/237/212 224/246/224
f 227/250/227 226/249/226 223/244/223
f 219/240/219 228/251/228 243/277/243
f 254/297/254 229/256/229 234/255/234
f 223/244/223 225/247/225 229/256/229
f 233/254/233 249/283/249 258/282/258
f 200/266/200 202/323/202 251/292/251
f 488/324/488 200/222/200 230/252/230
f 267/309/267 247/284/247 250/286/250
f 229/256/229 254/297/254 223/244/223
f 221/313/221 224/246/224 222/243/222
f 281/325/281 289/326/289 285/327/285
f 208/230/208 284/328/284 283/329/283
f 284/330/284 205/227/205 285/327/285
f 284/330/284 207/232/207 205/227/205
f 205/227/205 281/325/281 285/327/285
f 205/227/205 286/331/286 281/325/281
f 283/329/283 287/332/287 288/333/288
f 287/332/287 283/329/283 284/328/284
f 281/325/281 282/334/282 290/335/290
f 281/325/281 291/336/291 282/334/282
f 290/335/290 289/326/289 281/325/281
f 290/335/290 282/334/282 292/337/292
f 292/337/292 294/338/294 293/339/293
f 282/334/282 294/338/294 292/337/292
f 295/340/295 293/339/293 294/338/294
f 295/340/295 294/338/294 296/341/296
f 282/334/282 291/336/291 294/338/294
f 294/338/294 291/336/291 297/342/297
f 296/341/296 294/338/294 297/342/297
f 281/325/281 286/331/286 291/336/291
f 313/343/313 289/326/289 290/335/290
f 298/311/298 269/312/269 288/333/288
f 283/329/283 288/333/288 269/312/269
f 302/344/302 303/345/303 304/346/304
f 302/344/302 305/347/305 306/348/306
f 300/349/300 301/350/301 273/351/273
f 275/317/275 307/352/307 273/315/273
f 310/353/310 287/354/287 309/355/309
f 311/356/311 302/344/302 304/346/304
f 302/344/302 311/356/311 312/357/312
f 300/349/300 273/351/273 307/358/307
f 303/345/303 300/349/300 307/358/307
f 303/345/303 307/358/307 304/346/304
f 307/358/307 311/356/311 304/346/304
f 311/359/311 307/352/307 299/360/299
f 307/352/307 275/317/275 299/360/299
f 311/359/311 298/311/298 312/361/312
f 287/332/287 310/362/310 288/333/288
f 288/333/288 312/361/312 298/311/298
f 310/362/310 312/361/312 288/333/288
f 313/343/313 309/355/309 289/326/289
f 309/355/309 287/354/287 289/326/289
f 314/363/314 315/364/315 316/365/316
f 319/366/319 317/367/317 318/368/318
f 320/369/320 314/363/314 319/366/319
f 316/365/316 301/350/301 314/363/314
f 319/366/319 301/350/301 300/349/300
f 319/366/319 321/370/321 317/367/317
f 321/370/321 319/366/319 303/345/303
f 301/350/301 319/366/319 314/363/314
f 319/366/319 300/349/300 303/345/303
f 303/345/303 302/344/302 321/370/321
f 302/344/302 322/371/322 321/370/321
f 379/372/379 323/373/323 316/374/316
f 324/375/324 316/374/316 323/373/323
f 324/376/324 301/350/301 316/365/316
f 315/364/315 379/377/379 316/365/316
f 325/378/325 293/339/293 295/340/295
f 326/379/326 317/367/317 327/380/327
f 321/370/321 322/371/322 317/367/317
f 306/348/306 333/381/333 328/382/328
f 325/378/325 331/383/331 335/384/335
f 327/380/327 317/367/317 322/371/322
f 322/371/322 328/382/328 327/380/327
f 328/382/328 322/371/322 306/348/306
f 306/348/306 332/385/332 333/381/333
f 332/385/332 306/348/306 305/347/305
f 332/386/332 329/387/329 333/388/333
f 329/387/329 334/389/334 333/388/333
f 332/386/332 313/343/313 329/387/329
f 305/347/305 310/390/310 332/385/332
f 309/355/309 332/386/332 310/353/310
f 309/355/309 313/343/313 332/386/332
f 308/391/308 335/384/335 313/343/313
f 329/387/329 313/343/313 335/384/335
f 335/384/335 331/383/331 329/387/329
f 335/384/335 308/391/308 293/339/293
f 308/391/308 292/337/292 293/339/293
f 335/384/335 293/339/293 325/378/325
f 287/354/287 284/330/284 285/327/285
f 287/354/287 285/327/285 289/326/289
f 308/391/308 290/335/290 292/337/292
f 313/343/313 290/335/290 308/391/308
f 274/316/274 273/315/273 324/375/324
f 324/376/324 273/351/273 301/350/301
f 302/344/302 306/348/306 322/371/322
f 280/392/280 324/375/324 323/373/323
f 326/379/326 336/393/336 317/367/317
f 337/394/337 338/395/338 339/396/339
f 339/396/339 340/397/340 270/248/270
f 339/396/339 338/395/338 340/397/340
f 337/394/337 341/314/341 338/395/338
f 337/394/337 342/398/342 341/314/341
f 338/395/338 341/314/341 340/397/340
f 344/399/344 343/400/343 347/401/347
f 347/402/347 345/403/345 344/404/344
f 344/404/344 345/403/345 342/398/342
f 343/400/343 346/405/346 347/401/347
f 346/405/346 126/406/126 347/401/347
f 368/407/368 343/400/343 344/399/344
f 345/403/345 349/408/349 342/398/342
f 350/409/350 349/408/349 351/410/351
f 342/398/342 349/408/349 341/314/341
f 350/409/350 341/314/341 349/408/349
f 347/402/347 348/411/348 349/408/349
f 348/411/348 351/410/351 349/408/349
f 354/412/354 355/413/355 356/414/356
f 357/415/357 354/412/354 356/414/356
f 354/412/354 357/415/357 358/416/358
f 360/417/360 356/414/356 359/418/359
f 359/418/359 361/419/361 360/417/360
f 362/420/362 361/419/361 363/421/363
f 364/422/364 365/423/365 360/417/360
f 364/422/364 360/417/360 361/419/361
f 362/420/362 364/422/364 361/419/361
f 364/422/364 362/420/362 339/424/339
f 362/420/362 366/425/366 339/424/339
f 365/423/365 364/422/364 339/424/339
f 357/426/357 352/427/352 358/428/358
f 356/414/356 360/417/360 357/415/357
f 365/429/365 352/427/352 357/426/357
f 360/417/360 365/423/365 357/415/357
f 352/427/352 365/429/365 367/430/367
f 367/430/367 365/429/365 339/396/339
f 368/407/368 344/399/344 366/425/366
f 370/431/370 356/414/356 355/413/355
f 359/418/359 370/431/370 371/432/371
f 371/432/371 372/433/372 359/418/359
f 372/433/372 361/419/361 359/418/359
f 406/434/406 363/421/363 372/433/372
f 373/435/373 366/425/366 363/421/363
f 373/435/373 374/436/374 366/425/366
f 368/407/368 366/425/366 374/436/374
f 374/436/374 369/437/369 368/407/368
f 369/437/369 375/438/375 343/400/343
f 368/407/368 369/437/369 343/400/343
f 378/439/378 376/440/376 377/318/377
f 377/318/377 376/440/376 276/321/276
f 379/372/379 278/320/278 323/373/323
f 354/412/354 378/441/378 380/442/380
f 355/413/355 354/412/354 380/442/380
f 378/441/378 379/377/379 381/443/381
f 378/441/378 381/443/381 380/442/380
f 278/320/278 379/372/379 378/439/378
f 378/441/378 354/412/354 358/416/358
f 278/320/278 378/439/378 377/318/377
f 337/394/337 339/396/339 366/444/366
f 363/421/363 361/419/361 372/433/372
f 362/420/362 363/421/363 366/425/366
f 376/440/376 358/428/358 276/321/276
f 358/428/358 352/427/352 276/321/276
f 352/427/352 367/430/367 353/445/353
f 270/248/270 259/300/259 367/430/367
f 270/248/270 367/430/367 339/396/339
f 370/431/370 359/418/359 356/414/356
f 382/446/382 346/405/346 343/400/343
f 352/427/352 353/445/353 276/321/276
f 358/428/358 376/440/376 378/439/378
f 315/364/315 383/447/383 384/448/384
f 383/447/383 320/369/320 318/368/318
f 315/364/315 320/369/320 383/447/383
f 385/449/385 384/448/384 383/447/383
f 386/450/386 384/448/384 385/449/385
f 207/232/207 204/225/204 205/227/205
f 203/224/203 210/226/210 211/451/211
f 205/227/205 203/224/203 286/331/286
f 203/224/203 211/451/211 286/331/286
f 266/307/266 258/282/258 257/298/257
f 298/311/298 299/360/299 256/308/256
f 255/299/255 299/360/299 275/317/275
f 299/360/299 255/299/255 256/308/256
f 340/397/340 221/313/221 271/245/271
f 341/314/341 272/452/272 214/234/214
f 278/320/278 277/319/277 280/392/280
f 284/328/284 208/230/208 207/229/207
f 299/360/299 298/311/298 311/359/311
f 280/392/280 274/316/274 324/375/324
f 314/363/314 320/369/320 315/364/315
f 323/373/323 278/320/278 280/392/280
f 318/368/318 317/367/317 336/393/336
f 269/312/269 208/230/208 283/329/283
f 270/248/270 340/397/340 271/245/271
f 366/444/366 344/404/344 337/394/337
f 350/409/350 272/452/272 341/314/341
f 341/314/341 221/313/221 340/397/340
f 345/403/345 347/402/347 349/408/349
f 406/434/406 373/435/373 363/421/363
f 355/413/355 380/442/380 387/453/387
f 381/443/381 386/450/386 380/442/380
f 381/443/381 379/377/379 384/448/384
f 384/448/384 379/377/379 315/364/315
f 386/450/386 381/443/381 384/448/384
f 380/442/380 386/450/386 387/453/387
f 318/368/318 320/369/320 319/366/319
f 389/454/389 394/455/394 388/456/388
f 331/383/331 393/457/393 394/455/394
f 394/455/394 295/340/295 396/458/396
f 395/459/395 394/455/394 396/458/396
f 394/455/394 395/459/395 388/456/388
f 390/460/390 388/456/388 395/459/395
f 389/454/389 390/460/390 397/461/397
f 397/461/397 390/460/390 398/462/398
f 398/462/398 390/460/390 195/217/195
f 399/463/399 400/464/400 401/465/401
f 389/454/389 400/466/400 399/467/399
f 402/468/402 328/382/328 333/381/333
f 402/468/402 334/469/334 399/463/399
f 334/469/334 402/468/402 333/381/333
f 399/467/399 392/470/392 389/454/389
f 399/467/399 334/389/334 392/470/392
f 392/470/392 334/389/334 329/387/329
f 392/470/392 330/471/330 394/455/394
f 331/383/331 394/455/394 330/471/330
f 390/460/390 389/454/389 388/456/388
f 392/470/392 394/455/394 389/454/389
f 399/463/399 401/465/401 402/468/402
f 328/382/328 404/472/404 403/473/403
f 405/474/405 371/432/371 370/431/370
f 405/474/405 406/434/406 371/432/371
f 409/475/409 405/474/405 370/431/370
f 373/435/373 410/476/410 374/436/374
f 382/446/382 375/438/375 411/477/411
f 382/446/382 343/400/343 375/438/375
f 382/446/382 412/478/412 346/405/346
f 369/437/369 374/436/374 375/438/375
f 415/479/415 374/436/374 410/476/410
f 415/479/415 414/480/414 374/436/374
f 414/480/414 416/481/416 413/144/413
f 416/481/416 414/480/414 415/479/415
f 411/477/411 419/149/419 382/446/382
f 414/480/414 375/438/375 374/436/374
f 414/480/414 411/477/411 375/438/375
f 411/477/411 414/480/414 413/144/413
f 411/477/411 413/144/413 419/149/419
f 416/481/416 450/482/450 417/216/417
f 417/216/417 413/144/413 416/481/416
f 420/483/420 450/482/450 416/481/416
f 420/483/420 416/481/416 418/484/418
f 407/485/407 406/434/406 405/474/405
f 452/486/452 422/487/422 405/474/405
f 422/487/422 407/485/407 405/474/405
f 407/485/407 422/487/422 421/488/421
f 418/484/418 421/488/421 420/483/420
f 418/484/418 408/489/408 421/488/421
f 418/484/418 373/435/373 408/489/408
f 418/484/418 410/476/410 373/435/373
f 407/485/407 421/488/421 408/489/408
f 423/490/423 424/491/424 426/492/426
f 424/491/424 427/493/427 426/492/426
f 426/492/426 425/209/425 423/490/423
f 196/218/196 428/494/428 426/492/426
f 426/492/426 428/494/428 425/209/425
f 432/495/432 431/496/431 433/497/433
f 430/498/430 431/496/431 432/495/432
f 433/497/433 431/496/431 434/499/434
f 431/496/431 435/500/435 434/499/434
f 435/500/435 436/211/436 434/499/434
f 462/501/462 429/502/429 437/503/437
f 423/490/423 439/504/439 424/491/424
f 429/502/429 440/505/440 430/498/430
f 441/506/441 440/505/440 429/502/429
f 440/505/440 431/496/431 430/498/430
f 440/505/440 442/507/442 431/496/431
f 423/490/423 442/507/442 439/504/439
f 442/507/442 423/490/423 438/508/438
f 435/500/435 442/507/442 438/508/438
f 431/496/431 442/507/442 435/500/435
f 435/500/435 438/508/438 436/211/436
f 462/501/462 441/506/441 429/502/429
f 441/506/441 443/509/443 439/504/439
f 440/505/440 439/504/439 442/507/442
f 441/506/441 439/504/439 440/505/440
f 424/491/424 439/504/439 443/509/443
f 437/503/437 429/502/429 444/510/444
f 429/502/429 445/511/445 444/510/444
f 446/512/446 437/503/437 444/510/444
f 429/502/429 432/495/432 445/511/445
f 432/495/432 452/486/452 445/511/445
f 452/486/452 432/495/432 422/487/422
f 429/502/429 430/498/430 432/495/432
f 422/487/422 432/495/432 447/513/447
f 432/495/432 433/497/433 447/513/447
f 447/513/447 433/497/433 448/514/448
f 433/497/433 434/499/434 448/514/448
f 448/514/448 434/499/434 450/482/450
f 420/483/420 448/514/448 450/482/450
f 452/486/452 451/515/451 444/510/444
f 451/515/451 446/512/446 444/510/444
f 451/515/451 452/486/452 409/475/409
f 452/486/452 405/474/405 409/475/409
f 444/510/444 445/511/445 452/486/452
f 453/516/453 449/517/449 446/512/446
f 454/518/454 455/519/455 385/449/385
f 453/516/453 387/453/387 457/520/457
f 458/521/458 457/520/457 456/522/456
f 456/522/456 385/449/385 455/519/455
f 453/516/453 446/512/446 451/515/451
f 458/521/458 449/517/449 453/516/453
f 458/521/458 453/516/453 457/520/457
f 355/413/355 453/516/453 451/515/451
f 355/413/355 387/453/387 453/516/453
f 460/523/460 461/524/461 459/525/459
f 461/524/461 427/493/427 459/525/459
f 441/506/441 462/501/462 443/509/443
f 471/526/471 459/525/459 443/509/443
f 464/527/464 461/524/461 475/528/475
f 461/524/461 464/527/464 427/493/427
f 463/529/463 466/530/466 464/531/464
f 464/531/464 466/530/466 465/532/465
f 464/531/464 465/532/465 198/220/198
f 474/533/474 460/523/460 471/526/471
f 471/526/471 460/523/460 459/525/459
f 468/534/468 397/461/397 398/462/398
f 463/529/463 397/461/397 468/534/468
f 468/534/468 466/530/466 463/529/463
f 468/534/468 465/532/465 466/530/466
f 468/534/468 467/535/467 465/532/465
f 476/536/476 470/537/470 469/538/469
f 470/537/470 437/503/437 449/517/449
f 469/538/469 470/537/470 449/517/449
f 462/501/462 471/526/471 472/539/472
f 470/537/470 471/526/471 462/501/462
f 474/533/474 471/526/471 473/540/473
f 475/528/475 460/523/460 474/533/474
f 455/519/455 458/521/458 456/522/456
f 455/519/455 469/538/469 458/521/458
f 476/536/476 469/538/469 455/519/455
f 383/447/383 477/541/477 454/518/454
f 326/379/326 403/473/403 478/542/478
f 479/543/479 480/544/480 478/542/478
f 479/543/479 404/472/404 475/528/475
f 475/528/475 404/472/404 481/545/481
f 476/536/476 482/546/482 483/547/483
f 477/541/477 482/546/482 454/518/454
f 476/536/476 454/518/454 482/546/482
f 484/548/484 482/546/482 485/549/485
f 484/548/484 485/549/485 473/540/473
f 480/544/480 485/549/485 486/550/486
f 485/549/485 480/544/480 473/540/473
f 484/548/484 483/547/483 482/546/482
f 476/536/476 483/547/483 470/537/470
f 484/548/484 471/526/471 483/547/483
f 470/537/470 483/547/483 471/526/471
f 486/550/486 478/542/478 480/544/480
f 484/548/484 473/540/473 471/526/471
f 474/533/474 473/540/473 480/544/480
f 480/544/480 475/528/475 474/533/474
f 479/543/479 475/528/475 480/544/480
f 481/545/481 463/551/463 475/528/475
f 463/551/463 481/545/481 401/465/401
f 403/473/403 479/543/479 478/542/478
f 403/473/403 404/472/404 479/543/479
f 404/472/404 401/465/401 481/545/481
f 482/546/482 477/541/477 487/552/487
f 336/393/336 486/550/486 487/552/487
f 478/542/478 486/550/486 326/379/326
f 336/393/336 326/379/326 486/550/486
f 459/525/459 427/493/427 424/491/424
f 438/508/438 423/490/423 425/209/425
f 438/508/438 425/209/425 189/208/189
f 446/512/446 449/517/449 437/503/437
f 459/525/459 424/491/424 443/509/443
f 472/539/472 471/526/471 443/509/443
f 462/501/462 472/539/472 443/509/443
f 460/523/460 475/528/475 461/524/461
f 400/464/400 463/551/463 401/465/401
f 463/529/463 400/466/400 397/461/397
f 470/537/470 462/501/462 437/503/437
f 458/521/458 469/538/469 449/517/449
f 454/518/454 476/536/476 455/519/455
f 328/382/328 402/468/402 404/472/404
f 404/472/404 402/468/402 401/465/401
f 406/434/406 407/485/407 408/489/408
f 416/481/416 410/476/410 418/484/418
f 410/476/410 416/481/416 415/479/415
f 434/499/434 436/211/436 192/213/192
f 409/475/409 355/413/355 451/515/451
f 421/488/421 422/487/422 447/513/447
f 420/483/420 421/488/421 448/514/448
f 421/488/421 447/513/447 448/514/448
f 464/527/464 475/528/475 463/551/463
f 485/549/485 482/546/482 487/552/487
f 487/552/487 486/550/486 485/549/485
f 468/534/468 398/462/398 467/535/467
f 389/454/389 397/461/397 400/466/400
f 247/284/247 267/309/267 255/299/255
f 295/340/295 393/457/393 325/378/325
f 329/387/329 330/471/330 392/470/392
f 330/471/330 329/387/329 331/383/331
f 393/457/393 331/383/331 325/378/325
f 371/432/371 406/434/406 372/433/372
f 383/447/383 454/518/454 385/449/385
f 386/450/386 457/520/457 387/453/387
f 386/450/386 385/449/385 456/522/456
f 477/541/477 383/447/383 318/368/318
f 295/340/295 394/455/394 393/457/393
f 328/382/328 403/473/403 327/380/327
f 408/489/408 373/435/373 406/434/406
f 456/522/456 457/520/457 386/450/386
f 318/368/318 336/393/336 487/552/487
f 326/379/326 327/380/327 403/473/403
f 477/541/477 318/368/318 487/552/487
f 16/17/16 2/18/2 29/64/29
f 1/1/1 4/3/4 27/26/27
f 28/27/28 1/1/1 27/26/27
f 488/324/488 13/13/13 201/16/201
f 210/226/210 18/63/18 16/17/16
f 228/553/228 15/15/15 232/264/232
f 296/341/296 297/342/297 47/88/47
f 44/50/44 45/51/45 291/336/291
f 286/331/286 29/64/29 44/50/44
f 58/65/58 55/60/55 348/411/348
f 348/411/348 50/57/50 56/61/56
f 27/26/27 26/25/26 28/27/28
f 42/46/42 75/79/75 43/49/43
f 42/46/42 41/47/41 75/79/75
f 30/41/30 34/33/34 217/242/217
f 211/451/211 29/64/29 286/331/286
f 47/88/47 297/342/297 48/52/48
f 348/411/348 55/60/55 50/57/50
f 53/58/53 350/409/350 56/61/56
f 53/58/53 57/62/57 350/409/350
f 71/81/71 26/25/26 66/73/66
f 71/81/71 66/73/66 67/74/67
f 87/94/87 89/97/89 90/99/90
f 90/99/90 89/97/89 88/96/88
f 80/84/80 100/114/100 296/341/296
f 391/554/391 96/105/96 195/217/195
f 395/459/395 98/106/98 391/554/391
f 396/458/396 100/114/100 82/87/82
f 396/458/396 82/87/82 99/107/99
f 395/459/395 396/458/396 99/107/99
f 64/69/64 108/117/108 107/116/107
f 64/69/64 61/68/61 108/117/108
f 428/494/428 196/218/196 197/219/197
f 192/213/192 191/212/191 450/482/450
f 191/212/191 180/199/180 417/216/417
f 193/555/193 198/220/198 171/183/171
f 185/203/185 198/220/198 199/221/199
f 489/556/489 188/207/188 186/204/186
f 193/214/193 194/215/194 427/493/427
f 195/217/195 187/206/187 489/556/489
f 391/554/391 98/106/98 96/105/96
f 395/459/395 99/107/99 98/106/98
f 489/556/489 187/206/187 188/207/188
f 58/65/58 126/557/126 122/128/122
f 413/144/413 133/146/133 134/148/134
f 122/151/122 412/478/412 419/149/419
f 126/406/126 412/478/412 122/151/122
f 194/215/194 171/188/171 173/187/173
f 436/211/436 189/208/189 175/205/175
f 39/42/39 25/32/25 33/28/33
f 47/88/47 80/84/80 296/341/296
f 488/324/488 201/16/201 200/222/200
f 230/252/230 13/13/13 488/324/488
f 211/451/211 16/17/16 29/64/29
f 211/451/211 210/226/210 16/17/16
f 31/45/31 30/41/30 215/235/215
f 216/236/216 30/41/30 217/242/217
f 34/33/34 38/37/38 217/242/217
f 15/15/15 228/553/228 38/38/38
f 11/11/11 13/13/13 231/253/231
f 231/253/231 232/264/232 11/11/11
f 11/11/11 232/264/232 15/15/15
f 228/553/228 232/264/232 236/265/236
f 206/228/206 248/285/248 202/293/202
f 240/272/240 244/271/244 245/558/245
f 263/304/263 254/297/254 234/255/234
f 214/234/214 272/452/272 215/235/215
f 272/452/272 31/45/31 215/235/215
f 57/62/57 31/45/31 272/452/272
f 280/392/280 265/306/265 274/316/274
f 277/319/277 265/306/265 280/392/280
f 206/228/206 202/293/202 209/231/209
f 291/336/291 48/52/48 297/342/297
f 45/51/45 48/52/48 291/336/291
f 291/336/291 286/331/286 44/50/44
f 310/390/310 305/347/305 312/357/312
f 337/394/337 344/404/344 342/398/342
f 58/65/58 348/411/348 126/557/126
f 348/411/348 347/402/347 126/557/126
f 351/410/351 56/61/56 350/409/350
f 351/410/351 348/411/348 56/61/56
f 353/445/353 367/430/367 259/300/259
f 302/344/302 312/357/312 305/347/305
f 353/445/353 259/300/259 276/321/276
f 272/452/272 350/409/350 57/62/57
f 390/460/390 391/554/391 195/217/195
f 390/460/390 395/459/395 391/554/391
f 398/462/398 195/217/195 489/556/489
f 355/413/355 409/475/409 370/431/370
f 419/149/419 412/478/412 382/446/382
f 412/478/412 126/406/126 346/405/346
f 419/149/419 413/144/413 134/148/134
f 426/492/426 427/493/427 194/215/194
f 426/492/426 194/215/194 196/218/196
f 196/218/196 194/215/194 173/187/173
f 425/209/425 428/494/428 190/210/190
f 436/211/436 438/508/438 189/208/189
f 192/213/192 450/482/450 434/499/434
f 450/482/450 191/212/191 417/216/417
f 198/220/198 193/555/193 464/531/464
f 464/527/464 193/214/193 427/493/427
f 465/532/465 199/221/199 198/220/198
f 467/535/467 186/204/186 465/532/465
f 465/532/465 186/204/186 199/221/199
f 489/556/489 467/535/467 398/462/398
f 186/204/186 467/535/467 489/556/489
f 417/216/417 132/145/132 413/144/413
f 296/341/296 396/458/396 295/340/295
f 100/114/100 396/458/396 296/341/296
f 150/559/150 147/161/147 168/181/168
f 428/494/428 197/219/197 490/560/490
f 428/494/428 490/560/490 190/210/190
f 491/561/491 492/562/492 146/172/146
f 146/172/146 145/171/145 491/561/491
f 147/161/147 493/563/493 148/162/148
f 148/162/148 491/561/491 151/165/151
f 153/167/153 491/561/491 145/171/145
f 153/167/153 151/165/151 491/561/491
f 150/559/150 493/563/493 147/161/147
f 492/562/492 491/561/491 494/564/494
f 494/564/494 491/561/491 493/563/493
f 493/563/493 491/561/491 148/162/148
f 175/565/175 495/566/495 169/196/169
f 496/567/496 169/196/169 495/566/495
f 490/568/490 497/569/497 495/566/495
f 495/566/495 497/569/497 498/570/498
f 173/190/173 499/571/499 197/572/197
f 173/190/173 146/172/146 499/571/499
f 499/571/499 494/564/494 498/570/498
f 498/570/498 494/564/494 493/563/493
f 492/562/492 499/571/499 146/172/146
f 499/571/499 492/562/492 494/564/494
f 495/566/495 500/573/500 496/567/496
f 500/573/500 501/574/501 496/567/496
f 150/559/150 496/567/496 501/574/501
f 197/572/197 498/570/498 490/568/490
f 498/570/498 497/569/497 490/568/490
f 498/570/498 500/573/500 495/566/495
f 499/571/499 498/570/498 197/572/197
f 498/570/498 493/563/493 500/573/500
f 500/573/500 493/563/493 501/574/501
f 501/574/501 493/563/493 150/559/150
f 169/196/169 496/567/496 168/181/168
f 150/559/150 168/181/168 496/567/496
f 495/575/495 190/210/190 490/560/490
f 175/205/175 190/210/190 495/575/495

